<?xml version="1.0" encoding="utf-8"?>
<!-- Generator: Adobe Illustrator 19.0.0, SVG Export Plug-In . SVG Version: 6.00 Build 0)  -->
<svg version="1.1" id="Capa_1" xmlns="http://www.w3.org/2000/svg" xmlns:xlink="http://www.w3.org/1999/xlink" x="0px" y="0px"
	 viewBox="0 0 800 800" style="enable-background:new 0 0 800 800;" xml:space="preserve">
<style type="text/css">
	.st0{fill:#F8AE13;}
</style>
<g id="_x32_">
	<g>
		<path class="st0" d="M207.9,197c51.8-51.8,120.7-80.4,194-80.4s142.2,28.5,194,80.4c51.8,51.8,80.4,120.7,80.4,194
			c0,73.3-28.5,142.2-80.4,194c-51.8,51.8-120.7,80.4-194,80.4s-142.2-28.5-194-80.4c-51.8-51.8-80.4-120.7-80.4-194
			C127.6,317.7,156.1,248.8,207.9,197z M197.6,186.6C143,241.2,112.9,313.8,112.9,391c0,77.2,30.1,149.8,84.7,204.4
			c54.6,54.6,127.2,84.7,204.4,84.7s149.8-30.1,204.4-84.7C660.9,540.8,691,468.2,691,391c0-77.2-30.1-149.8-84.7-204.4
			C551.7,132.1,479.2,102,402,102S252.2,132.1,197.6,186.6z"/>
	</g>
	<g>
		<g>
			<path id="XMLID_26_" class="st0" d="M325.8,750.4c-33.8,8.4-59.4,7.7-89.5-10.3c33.4-53.8,109-72.6,163.7-40.7
				C381.9,729.4,359.7,742,325.8,750.4"/>
		</g>
		<g>
			<path id="XMLID_25_" class="st0" d="M211,702.8c-34.7-3.1-58.6-12.1-81.2-38.9c49.1-40,126.7-33.2,168,14.8
				C270.8,701.2,245.7,705.9,211,702.8"/>
		</g>
		<g>
			<path id="XMLID_24_" class="st0" d="M117.8,620.4c-31.8-14.2-51.5-30.5-64.1-63.2c59.5-21.8,130.6,9.9,154.1,68.7
				C174.9,638.3,149.7,634.6,117.8,620.4"/>
		</g>
		<g>
			<path id="XMLID_23_" class="st0" d="M56.6,512.2c-25.5-23.8-38.8-45.6-40.1-80.7c63.3-1.3,120.2,51.8,123.3,115.1
				C104.8,547.7,82.1,535.9,56.6,512.2"/>
		</g>
		<g>
			<path id="XMLID_22_" class="st0" d="M34,389.9c-16.3-30.8-21.8-55.8-11.6-89.3c60.3,19.4,96.8,88.2,79.1,149
				C67.9,439.2,50.3,420.7,34,389.9"/>
		</g>
		<g>
			<path id="XMLID_21_" class="st0" d="M52.4,266.9c-5.4-34.4-2.5-59.8,18.1-88.2c50.7,38,62.8,114.9,26.3,166.6
				C68.4,324.6,57.8,301.3,52.4,266.9"/>
		</g>
	</g>
	<g>
		<path id="XMLID_20_" class="st0" d="M474.3,750.4c33.8,8.4,59.4,7.7,89.5-10.3c-33.4-53.8-109-72.6-163.7-40.7
			C418.2,729.4,440.5,742,474.3,750.4"/>
	</g>
	<g>
		<path id="XMLID_19_" class="st0" d="M393.8,770c-8.3,15.2-17.2,24.3-33.9,29.3c-8.5-30.4,10.1-64.4,40.2-73.7
			C404.9,742.3,402.1,754.7,393.8,770"/>
	</g>
	<g>
		<path id="XMLID_18_" class="st0" d="M406.3,770c8.3,15.2,17.2,24.4,33.9,29.3c8.5-30.4-10.1-64.4-40.2-73.7
			C395.2,742.3,398,754.7,406.3,770"/>
	</g>
	<g>
		<path id="XMLID_17_" class="st0" d="M589.2,702.8c34.7-3.1,58.6-12.1,81.2-38.9c-49.1-40-126.7-33.2-168,14.8
			C529.3,701.2,554.4,705.9,589.2,702.8"/>
	</g>
	<g>
		<path id="XMLID_16_" class="st0" d="M682.3,620.4c31.8-14.2,51.5-30.5,64.1-63.2c-59.5-21.8-130.6,9.9-154.1,68.7
			C625.2,638.3,650.5,634.6,682.3,620.4"/>
	</g>
	<g>
		<path id="XMLID_15_" class="st0" d="M743.5,512.2c25.5-23.8,38.8-45.6,40.1-80.7c-63.3-1.3-120.2,51.8-123.3,115.1
			C695.4,547.7,718,535.9,743.5,512.2"/>
	</g>
	<g>
		<path id="XMLID_14_" class="st0" d="M766.2,389.9c16.3-30.8,21.8-55.8,11.6-89.3c-60.3,19.4-96.8,88.2-79.1,149
			C732.2,439.2,749.8,420.7,766.2,389.9"/>
	</g>
	<g>
		<path id="XMLID_13_" class="st0" d="M747.8,266.9c5.4-34.4,2.5-59.8-18.1-88.2c-50.7,38-62.8,114.9-26.3,166.6
			C731.7,324.6,742.3,301.3,747.8,266.9"/>
	</g>
	<g>
		<path class="st0" d="M673.4,200l-12,8.4c7.8,11,14.9,22.6,21.3,34.7l13-6.8C689,223.7,681.6,211.5,673.4,200 M615.9,137.3
			l-9.4,11.2c10.4,8.7,20.2,18.2,29.4,28.2l10.8-9.9C637.1,156.3,626.8,146.5,615.9,137.3 M544.4,91.2l-6.3,13.2
			c12.3,5.8,24.2,12.5,35.6,19.8l7.9-12.3C569.7,104.3,557.3,97.4,544.4,91.2 M463.5,64.8l-2.7,14.4c13.4,2.5,26.6,5.9,39.5,10.1
			l4.6-13.9C491.4,71,477.6,67.5,463.5,64.8 M295.2,76.7l4.7,13.9c12.7-4.3,25.9-7.8,39.3-10.6l-2.9-14.4
			C322.2,68.5,308.5,72.2,295.2,76.7 M218.8,114.2l8.1,12.2c11.3-7.5,23-14.2,35.3-20.2L255.8,93
			C242.9,99.3,230.6,106.4,218.8,114.2 M154.5,169.9l10.9,9.8c9-10.1,18.7-19.7,29-28.6l-9.6-11.1
			C174.1,149.3,163.9,159.3,154.5,169.9 M106.4,240.1l13.1,6.7c6.2-12.1,13.2-23.8,20.8-35l-12.1-8.3
			C120.2,215.2,112.9,227.4,106.4,240.1"/>
	</g>
	<g>
		<path class="st0" d="M402,150.5c132.7,0,240.6,107.9,240.6,240.6c0,132.6-107.9,240.6-240.6,240.6
			c-132.6,0-240.6-107.9-240.6-240.6C161.4,258.4,269.3,150.5,402,150.5z M146.4,391C146.4,532,261,646.6,402,646.6
			S657.6,532,657.6,391c0-140.9-114.7-255.6-255.6-255.6S146.4,250.1,146.4,391z"/>
	</g>
	<polygon id="XMLID_2_" class="st0" points="402,0.6 387.7,29.6 355.7,34.2 378.8,56.8 373.4,88.6 402,73.6 430.5,88.6 425.1,56.8 
		448.2,34.2 416.2,29.6 	"/>
</g>
<polygon id="XMLID_1_" class="st0" points="401.4,147.5 330.3,291.7 171.3,314.8 286.3,427 259.2,585.4 401.4,510.6 543.7,585.4 
	516.5,427 631.6,314.8 472.6,291.7 "/>
</svg>
