<?xml version="1.0" encoding="utf-8"?>
<!-- Generator: Adobe Illustrator 19.0.0, SVG Export Plug-In . SVG Version: 6.00 Build 0)  -->
<svg version="1.1" id="Capa_1" xmlns="http://www.w3.org/2000/svg" xmlns:xlink="http://www.w3.org/1999/xlink" x="0px" y="0px"
	 viewBox="-549 551 500 500" style="enable-background:new -549 551 500 500;" xml:space="preserve">
<style type="text/css">
	.st0{fill:#E7E7E9;stroke:#FFFFFF;stroke-width:2;stroke-miterlimit:10;}
</style>
<g id="XMLID_5_">
	<path id="XMLID_3_" class="st0" d="M-54,957.4c0,6.3,2.1,13-1,18.9c-7.6,14.1-20.7,23.7-36.7,25.2c-15.7,1.5-33.3,0.3-49.3,0.3
		c0-1.3,0-2.8,0-4.3c0-63.8,4.5-127.5,4.3-191.3c0-16.8,0.7-33.5-4.1-49.8c-6.7-23.1-16.9-43.7-32.9-61.8
		c-18.9-21.3-41.4-36.4-68.4-44.9c-28.1-8.9-56.3-9.6-85.1-2.2c-27.7,7.1-51.3,20.9-71.2,41c-20.7,20.9-34.4,45.9-41.2,74.7
		c-3.3,14-7.4,28.3-7.5,42.5c-0.2,63.9-3.1,127.8-3.1,191.7c0,1.4,0,2.9,0,4.5c-4,0.2,1.4,0.5,0.7,0.5c-13.6,0-25.8,0.3-39.4-0.2
		c-14.4-0.6-30.4-7.3-39.7-18.4c-6.4-7.9-16.4-17.3-16.4-27.2c0-38.8,0-77.7,0-116.5c0-0.9,5.8-1.7,5.9-2.6
		c3.8-19.3,16.8-33.3,35.3-40.5c2.3-0.9,4.4-2.2,4.5-4.7c0.6-16.4,3.4-32.7,7.8-48.5c6.8-24.7,18.1-47.5,33.2-68.3
		c14.9-20.7,33.3-38.2,54.4-52.4c24.9-16.7,52.4-27.5,82.1-32.3c27-4.4,53.9-3.5,80.5,2.6c21.5,4.9,41.7,13.1,60.6,24.5
		c14.8,8.9,28.2,19.5,40.4,31.7c12.5,12.4,23.2,26.3,32.3,41.4c10.4,17.3,18,35.7,23.2,55.2c3.9,14.9,6.1,30,6.4,45.5
		c0.1,3,1.3,4.6,4.2,5.7c10.8,4.1,13.3,11,18.6,21.3c3.4,6.8,1.7,14.3,1.7,21.6C-54,879.2-54,918.3-54,957.4z"/>
	<path id="XMLID_2_" class="st0" d="M-410.4,899.6c0-27.7,0-55.3,0-83c0-9.6,4.9-16.2,13.3-18.6c10.8-3,21.3,4.1,22.6,15.2
		c0.2,1.6,0.3,3.1,0.3,4.7c0,54.6,0,109.1,0,163.7c0,7.1-1.7,13.3-7.9,17.4c-5.9,3.9-12.2,4.5-18.6,1.1c-6.5-3.5-9.7-9-9.7-16.3
		C-410.4,955.7-410.4,927.6-410.4,899.6z"/>
	<path id="XMLID_1_" class="st0" d="M-165.8,907c0,32-0.2,51.9,0.1,79.7c0.2,12.3-10.3,18.6-20.3,17.3c-8-1-14.6-8.3-15.6-16.3
		c-0.2-2.1-0.3-4.7-0.3-6.7c0-54,0-108.3,0-162.3c0-5.2,0.5-10.3,4.1-14.5c4.9-5.8,12.4-8.1,19.9-5.7c7,2.2,12.1,12.3,12.1,19.9
		C-165.8,846.6-165.8,879-165.8,907L-165.8,907z"/>
</g>
</svg>
