<?xml version="1.0" encoding="utf-8"?>
<!-- Generator: Adobe Illustrator 19.0.0, SVG Export Plug-In . SVG Version: 6.00 Build 0)  -->
<svg version="1.1" id="Capa_1" xmlns="http://www.w3.org/2000/svg" xmlns:xlink="http://www.w3.org/1999/xlink" x="0px" y="0px"
	 viewBox="-549 551 500 500" style="enable-background:new -549 551 500 500;" xml:space="preserve">
<style type="text/css">
	.st0{fill:none;stroke:#FFFFFF;stroke-width:10;stroke-miterlimit:10;}
</style>
<g id="XMLID_5_">
	<path id="XMLID_3_" class="st0" d="M-55.2,956c0,6.2,2.1,12.9-1,18.7c-7.5,14-20.5,23.5-36.4,25c-15.6,1.5-33,0.3-48.9,0.3
		c0-1.3,0-2.8,0-4.3c0-63.2,4.5-126.4,4.3-189.6c0-16.7,0.7-33.2-4.1-49.4c-6.6-22.9-16.8-43.3-32.6-61.3
		c-18.7-21.1-41-36.1-67.8-44.5c-27.9-8.8-55.8-9.5-84.3-2.2c-27.5,7-50.8,20.7-70.6,40.6c-20.5,20.7-34.1,45.5-40.8,74
		c-3.3,13.9-7.3,28-7.4,42.1c-0.2,63.3-3.1,126.7-3.1,190c0,1.4,0,2.9,0,4.5c-4,0.2,1.4,0.5,0.7,0.5c-13.5,0-25.6,0.3-39.1-0.2
		c-14.3-0.6-30.1-7.2-39.3-18.2c-6.3-7.8-16.3-17.1-16.3-27c0-38.5,0-77,0-115.5c0-0.9,5.7-1.7,5.8-2.6c3.8-19.1,16.7-33,35-40.1
		c2.3-0.9,4.4-2.2,4.5-4.7c0.6-16.3,3.4-32.4,7.7-48.1c6.7-24.5,17.9-47.1,32.9-67.7c14.8-20.5,33-37.9,53.9-51.9
		c24.7-16.6,51.9-27.3,81.4-32c26.8-4.4,53.4-3.5,79.8,2.6c21.3,4.9,41.3,13,60.1,24.3c14.7,8.8,28,19.3,40,31.4
		c12.4,12.3,23,26.1,32,41c10.3,17.1,17.8,35.4,23,54.7c3.9,14.8,6,29.7,6.3,45.1c0.1,3,1.3,4.6,4.2,5.6
		c10.7,4.1,13.2,10.9,18.4,21.1c3.4,6.7,1.7,14.2,1.7,21.4C-55.2,878.5-55.2,917.2-55.2,956z"/>
	<path id="XMLID_2_" class="st0" d="M-408.4,898.7c0-27.5,0-54.8,0-82.3c0-9.5,4.9-16.1,13.2-18.4c10.7-3,21.1,4.1,22.4,15.1
		c0.2,1.6,0.3,3.1,0.3,4.7c0,54.1,0,108.1,0,162.2c0,7-1.7,13.2-7.8,17.2c-5.8,3.9-12.1,4.5-18.4,1.1c-6.4-3.5-9.6-8.9-9.6-16.2
		C-408.4,954.3-408.4,926.4-408.4,898.7z"/>
	<path id="XMLID_1_" class="st0" d="M-166,906c0,31.7-0.2,51.4,0.1,79c0.2,12.2-10.2,18.4-20.1,17.1c-7.9-1-14.5-8.2-15.5-16.2
		c-0.2-2.1-0.3-4.7-0.3-6.6c0-53.5,0-107.3,0-160.9c0-5.2,0.5-10.2,4.1-14.4c4.9-5.7,12.3-8,19.7-5.6c6.9,2.2,12,12.2,12,19.7
		C-166,846.2-166,878.3-166,906L-166,906z"/>
</g>
</svg>
