<svg xmlns="http://www.w3.org/2000/svg" viewBox="0 0 79.01 57"><defs><style>.cls-1{fill:#f2c40f;}</style></defs><title>Recurso 5</title><g id="Capa_2" data-name="Capa 2"><g id="Grado"><path class="cls-1" d="M74.25,47.59H4.77a4.92,4.92,0,0,0,0,9.83H74.25a4.92,4.92,0,0,0,0-9.83Z"/><path class="cls-1" d="M74.25,35.59H4.77a4.92,4.92,0,0,0,0,9.83H74.25a4.92,4.92,0,0,0,0-9.83Z"/><path class="cls-1" d="M74.25,23.59H4.77a4.92,4.92,0,0,0,0,9.83H74.25a4.92,4.92,0,0,0,0-9.83Z"/><path class="cls-1" d="M74.25,11.59H4.77a4.92,4.92,0,0,0,0,9.83H74.25a4.92,4.92,0,0,0,0-9.83Z"/><path class="cls-1" d="M74.25-.41H4.77a4.92,4.92,0,0,0,0,9.83H74.25a4.92,4.92,0,0,0,0-9.83Z"/></g></g></svg>