<?xml version="1.0" encoding="utf-8"?>
<!-- Generator: Adobe Illustrator 19.0.0, SVG Export Plug-In . SVG Version: 6.00 Build 0)  -->
<svg version="1.1" id="Capa_1" xmlns="http://www.w3.org/2000/svg" xmlns:xlink="http://www.w3.org/1999/xlink" x="0px" y="0px"
	 viewBox="-549 551 500 500" style="enable-background:new -549 551 500 500;" xml:space="preserve">
<style type="text/css">
	.st0{fill:none;stroke:#FFFFFF;stroke-width:10;stroke-miterlimit:10;}
</style>
<g id="XMLID_5_">
	<path id="XMLID_3_" class="st0" d="M-181.1,854.6c-4.6-2.7-9.5-4.9-14.5-6.9c-11.3-4.3-23.2-6.4-34.9-9.2
		c-8.6-2.1-17.3-4.2-24.7-9.3c-7.8-5.3-8.9-13.3-3.1-20.5c3.6-4.5,6-9.6,8.1-14.9c2.8-7.6,4.7-15.3,6-23.3c0.3-2,0.4-4.2,2.2-5.4
		c9.6-6.4,11.1-16.6,12.5-26.8c0.3-2.2,0.6-4.7-1.9-5.8c-2.7-1.1-2.1-2.8-2.1-4.9c0-11.9,1.6-23.8-1.8-35.5
		c-4.2-14.2-12.8-24.6-27.3-29c-3.7-1.1-7.3-2.5-10.6-4.2c-18.5-9.6-37.7-11.1-57.4-4.7c-19.2,6.2-30.8,19.3-34.5,39.3
		c-2,11.2-0.9,22.4,0.6,33.5c0.4,2.7,0.4,4.8-2.9,5.8c-2.6,0.8-2.6,3.2-2.5,5.5c0.3,9.8,4,18.4,11.1,25c2.8,2.7,4.4,5.6,5.3,9.2
		c3.4,13.6,8.5,26.4,16.8,37.9c1.8,2.4,2.1,4.8,1.8,7.6c-0.8,7.1-4.9,11.5-11.2,14.3c-11.4,5.1-23.7,7.1-35.6,10.2
		c-13.8,3.6-27.5,7.8-39.1,16.4c-8.8,6.6-16.6,14.3-18.9,25.7c-2.2,10.9-2.1,21.9-0.5,33c0.6,4.3,2.7,7.4,6.4,9.6
		c6.9,4.2,14,7.8,21.5,10.8c36.6,15,74.8,21.3,114.2,21.2c30.7-0.1,53.7-2.8,81.9-10.2c17.7-4.6,34.9-10.8,50.6-20.3
		c4.8-2.9,7.5-7,8.4-12.4c1.2-6.1,1.2-12.3,1.2-18.5C-155.7,878.4-164.4,864.1-181.1,854.6z"/>
	<path id="XMLID_2_" class="st0" d="M-56.5,874.3c-0.6-13.1-7.7-22.1-19.1-27.8c-6.7-3.2-13.7-5.2-20.8-7.1
		c-8.9-2.3-17.9-4.3-26.3-8.1c-4.1-1.9-8.2-4-10.8-7.9c-5.8-8.1-2.6-15.3,7.7-18.2c8.9-2.6,18.3-3.9,26.9-7.9
		c2.7-1.3,3.5-2.4,1.7-5.1c-6-9.1-7.9-19.2-7-30.1c1.1-13.5-0.6-26.7-4-39.8c-3.2-12-10.4-20.3-22.1-24.7c-15.8-5.9-31.1-4.9-46,3.2
		c-1.2,0.6-2.4,1.5-3.5,1.8c-13.3,2.7-20.2,11.5-23.5,24c-3.7,14.1-4.6,28.7-4.9,43.3c-0.1,7.1,0,14.3-3.9,20.4
		c-2.1,3.3-0.7,4.2,1.7,5.7c6.9,4,14.3,6.1,21.9,8.3c10.2,2.9,14.9,12.8,7.1,21.3c-2.7,2.9-6.4,4.7-9.8,7.4
		c9.2,3.7,17.9,7.7,25.5,13.5c12.7,9.5,21.3,21.5,24,37.5c1.5,8.9,1.7,18,1,27c-0.2,2.5,0.1,3.7,3,3.5c21.8-1.5,43.3-4.3,63.8-12.2
		C-54,894.5-55.5,896.5-56.5,874.3z"/>
	<path id="XMLID_1_" class="st0" d="M-444.1,860.1c8.8-10.5,19.5-18.3,32-23.5c6.5-2.7,13.1-4.9,20.5-7.7
		c-6.1-2.1-11.7-3.2-16.4-6.7c-4.6-3.3-6.5-9.4-3.4-13.1c7-8.3,9.5-18.3,11.4-28.5c0.3-1.8,0.1-3.9,1.9-5c6.7-4.3,7.8-11.4,8.9-18.4
		c0.2-1.5,0.5-3.9-0.2-4.3c-3.8-2.1-2.4-5.4-2.4-8.2c-0.1-5.2,0.2-10.4-0.3-15.5c-1.2-14.3-9.6-24.5-23.2-28.2
		c-1.5-0.4-2.8-1-4.1-1.7c-10-5.8-20.9-8.1-32.4-6.6c-15.7,2.1-28.6,8.4-34.2,24.6c-2.7,7.9-2.9,16-2.1,24.3
		c0.4,3.9,3.9,8.9-2.6,11.7c-1.1,0.5-0.8,2.5-0.6,3.8c0.8,6.9,3.3,13,8.5,17.7c1.7,1.6,2.7,3.1,3.2,5.4c2.5,10.3,6.2,20.1,12.6,28.7
		c1.2,1.7,1.4,3.3,1.2,5.2c-0.6,5.9-4.4,9.1-9.5,11.2c-7.1,2.7-14.4,4.2-21.7,6.1c-10.4,2.7-20.7,5.4-29.8,11.5
		c-10.3,7-16.7,16.2-16.2,29.3c0.1,3.3,0.2,6.7,0.1,10c-0.1,6.3,2.6,10.5,8.3,13.5c23.6,12.2,48.7,18.2,74.9,20.5
		c2.7,0.2,3.5-0.5,3.3-3.2c-0.3-6.2-0.4-12.4-0.2-18.6C-455.6,881.8-452.5,870.1-444.1,860.1z"/>
</g>
</svg>
