<svg xmlns="http://www.w3.org/2000/svg" viewBox="0 0 69.26 34"><defs><style>.cls-1{fill:red;}.cls-2{fill:#f2c40f;}</style></defs><title>Recurso 7</title><g id="Capa_2" data-name="Capa 2"><g id="Grado"><circle class="cls-1" cx="17" cy="17" r="17"/><path class="cls-2" d="M28.47,19.21l3.7-2.73L28.29,14,30.44,10l-4.56-.55.17-4.59L21.71,6.31,19.87,2.1,16.6,5.33l-3.48-3L11.58,6.66,7.14,5.46,7.63,10l-4.51.85,2.41,3.9-3.7,2.73L5.71,20,3.56,24l4.56.55-.17,4.59,4.34-1.49,1.83,4.21,3.27-3.23,3.48,3,1.54-4.32,4.44,1.19L26.37,24l4.51-.85Zm-3.66,1.23A8.53,8.53,0,1,1,25,13.91,8.49,8.49,0,0,1,24.81,20.44Z"/><path class="cls-2" d="M20,10.22A7.4,7.4,0,1,0,23.78,20,7.38,7.38,0,0,0,20,10.22Z"/><circle class="cls-1" cx="52.26" cy="17" r="17"/><path class="cls-2" d="M63.72,19.21l3.7-2.73L63.55,14,65.69,10l-4.56-.55.17-4.59L57,6.31,55.13,2.1,51.86,5.33l-3.48-3L46.83,6.66,42.4,5.46,42.88,10l-4.51.85,2.41,3.9-3.7,2.73L41,20,38.82,24l4.56.55-.17,4.59,4.34-1.49,1.83,4.21,3.27-3.23,3.48,3,1.54-4.32,4.44,1.19L61.63,24l4.51-.85Zm-3.66,1.23a8.53,8.53,0,1,1,.14-6.53A8.49,8.49,0,0,1,60.06,20.44Z"/><path class="cls-2" d="M55.24,10.22A7.4,7.4,0,1,0,59,20,7.38,7.38,0,0,0,55.24,10.22Z"/></g></g></svg>