<?xml version="1.0" encoding="utf-8"?>
<!-- Generator: Adobe Illustrator 19.0.0, SVG Export Plug-In . SVG Version: 6.00 Build 0)  -->
<svg version="1.1" id="Capa_1" xmlns="http://www.w3.org/2000/svg" xmlns:xlink="http://www.w3.org/1999/xlink" x="0px" y="0px"
	 viewBox="-549 551 500 500" style="enable-background:new -549 551 500 500;" xml:space="preserve">
<style type="text/css">
	.st0{fill:#E7E7E9;}
	.st1{fill:#E7E7E9;stroke:#FFFFFF;stroke-width:2;stroke-miterlimit:10;}
</style>
<line id="XMLID_11_" class="st0" x1="-542.3" y1="647" x2="-447.7" y2="552.4"/>
<g>
	<path class="st1" d="M-263.3,950.4c1.6,1.6,3.6,2.8,5.7,3.6l130.6,44.8c5.4,1.8,11.4,0.5,15.5-3.6c4.1-4.1,5.4-10.1,3.6-15.5
		l-44.7-130.6c-0.7-2.2-2-4.1-3.6-5.8l-209.4-209.4c-14.3-14.3-33.3-22.2-53.5-22.2s-39.2,7.9-53.6,22.2
		c-29.5,29.5-29.5,77.6,0,107.1L-263.3,950.4z M-255.6,915.6l-180.2-180.1l15.9-15.9l180.1,180.1L-255.6,915.6z M-155.2,934.4
		l-17.1,17.1l-57.2-19.6l54.7-54.7L-155.2,934.4z M-371.2,670.9L-191,851l-16,15.9l-180.1-180.1L-371.2,670.9z M-451.4,655.2
		c15.3-15.3,40.9-16.9,58.4-5l-63.5,63.5C-468.9,695.9-467.3,671.1-451.4,655.2L-451.4,655.2z"/>
	<path class="st1" d="M-139.5,724.1c20.8,0,40.3-8.1,54.9-22.8c23.2-23.2,29.3-58.8,15.1-88.5c-0.8-1.6-2.2-2.7-3.9-3
		c-1.7-0.3-3.4,0.2-4.7,1.5l-48.3,48.3c-7.1,7.1-19.5,7.1-26.6,0c-3.6-3.6-5.5-8.3-5.5-13.3s2-9.7,5.5-13.3l48.3-48.3
		c1.2-1.2,1.8-3,1.5-4.7s-1.4-3.2-3-3.9c-10.4-5-22-7.6-33.6-7.6c-20.7,0-40.2,8.1-54.9,22.7c-20.6,20.6-27.9,51.2-19,78.8l-45.8,46
		l50.2,50.2l45.9-45.8C-155.7,722.9-147.6,724.1-139.5,724.1L-139.5,724.1z"/>
	<path class="st1" d="M-464.6,894.5c-20.7,0-40.2,8.1-54.9,22.8c-23.2,23.2-29.3,58.7-15.1,88.4c0.8,1.6,2.2,2.7,3.9,3
		s3.5-0.3,4.7-1.5l48.3-48.2c7.1-7.1,19.5-7.1,26.6,0c3.6,3.6,5.5,8.3,5.5,13.3s-2,9.7-5.5,13.3l-48.3,48.3c-1.2,1.2-1.8,3-1.5,4.7
		c0.3,1.7,1.4,3.2,3,3.9c10.4,5,22,7.6,33.6,7.6c20.7,0,40.2-8.1,54.9-22.7c20.6-20.6,27.8-51.2,19-78.8l50.7-50.7l-50.3-50.2
		l-50.7,50.7C-448.4,895.7-456.4,894.5-464.6,894.5L-464.6,894.5z"/>
</g>
</svg>
