<svg xmlns="http://www.w3.org/2000/svg" viewBox="0 0 84.61 83.64"><defs><style>.cls-1{fill:#28d8b2;}</style></defs><title>Recurso 1</title><g id="Capa_2" data-name="Capa 2"><g id="Genero"><path class="cls-1" d="M82.84,1.72l-.11-.08a5.77,5.77,0,0,0-5-1.57L57.64.32a5.77,5.77,0,1,0,.15,11.53l6.72-.09-9.86,9.86A34.31,34.31,0,0,0,10,25,34.35,34.35,0,0,0,58.62,73.58C70.47,61.71,71.14,43.26,62,29.89l9.63-10.3v7.53c0,3.17,3.33,5.74,6.5,5.74s6.5-2.58,6.5-5.74V5.82A5.86,5.86,0,0,0,82.84,1.72ZM50.48,65.44c-8.64,8.64-23.68,8.64-32.29,0a22.83,22.83,0,1,1,32.29,0Z"/></g></g></svg>