<?xml version="1.0" encoding="utf-8"?>
<!-- Generator: Adobe Illustrator 20.0.0, SVG Export Plug-In . SVG Version: 6.00 Build 0)  -->
<svg version="1.1" id="Capa_1" xmlns="http://www.w3.org/2000/svg" xmlns:xlink="http://www.w3.org/1999/xlink" x="0px" y="0px"
	 viewBox="0 0 296.5 86.9" style="enable-background:new 0 0 296.5 86.9;" xml:space="preserve">
<style type="text/css">
	.st0{fill:#333333;}
</style>
<g>
	<path class="st0" d="M117,59.2L103,24.2c-0.3-0.7-0.7-1.2-1.3-1.6c-0.6-0.4-1.3-0.6-2-0.6c-0.7,0-1.4,0.2-2,0.6
		c-0.6,0.4-1.1,0.9-1.3,1.6L82.2,59.2c-0.4,0.9-0.3,1.8,0,2.7c0.4,0.9,1.1,1.6,2,1.9c0.9,0.3,1.8,0.3,2.7,0c0.9-0.4,1.6-1.1,1.9-1.9
		L99.7,35l10.8,26.9c0.3,0.7,0.7,1.2,1.3,1.6c0.6,0.4,1.3,0.6,2,0.6c0.5,0,0.9-0.1,1.3-0.3c0.9-0.3,1.6-1,2-1.9
		C117.4,61,117.4,60.1,117,59.2z"/>
	<path class="st0" d="M143.8,43.4c-1.6-1.2-4.2-2.2-7.8-3.2c-3.6-1-5-1.7-5.6-2.2c-0.9-0.7-1.4-1.8-1.4-3.3c0-1.5,0.6-2.7,1.8-3.8
		c1.2-1.1,2.7-1.6,4.4-1.6c1.5,0,2.7,0.4,3.8,1.2c1.1,0.8,1.8,1.9,2.2,3.4c0.3,0.9,0.8,1.6,1.7,2.1c0.8,0.4,1.7,0.5,2.6,0.3
		c0.9-0.3,1.6-0.8,2.1-1.7c0.4-0.8,0.5-1.7,0.3-2.6c-0.8-2.9-2.4-5.2-4.7-6.9c-2.3-1.7-5-2.6-8-2.6c-3.6,0-6.6,1.2-9.2,3.6
		c-2.5,2.4-3.8,5.3-3.8,8.7c0,3.8,1.5,6.8,4.3,8.9c1.6,1.2,4.1,2.2,7.8,3.2c3.6,1,5.1,1.7,5.7,2.2c0.9,0.7,1.4,1.8,1.4,3.4
		c0,1.5-0.6,2.7-1.8,3.8c-1.2,1.1-2.6,1.6-4.4,1.6c-1.5,0-2.9-0.4-4.1-1.3c-1.3-0.9-2.2-1.9-2.7-3.3c-0.4-0.9-1-1.5-1.8-1.9
		c-0.9-0.4-1.8-0.4-2.7,0c-0.9,0.4-1.5,1-1.9,1.9c-0.4,0.9-0.4,1.8,0,2.6c1,2.6,2.8,4.7,5.3,6.4l0,0c2.4,1.6,5.1,2.5,8,2.5
		c3.6,0,6.7-1.2,9.2-3.6c2.5-2.4,3.8-5.3,3.8-8.7C148.1,48.5,146.7,45.5,143.8,43.4z"/>
	<path class="st0" d="M189.4,50.2c-0.6-0.4-1.2-0.6-1.9-0.6c-0.2,0-0.5,0-0.7,0.1c-1,0.2-1.7,0.7-2.3,1.5c-1.3,1.9-2.9,3.4-4.9,4.5
		c-2,1.1-4.1,1.6-6.4,1.6c-3.8,0-6.9-1.3-9.6-4.1c-2.7-2.8-4-6-4-9.9c0-3.9,1.3-7.1,4-9.9c2.7-2.7,5.8-4.1,9.6-4.1
		c2.2,0,4.4,0.5,6.4,1.6c2,1.1,3.6,2.6,4.9,4.5c0.5,0.8,1.3,1.4,2.3,1.5c0.2,0,0.5,0.1,0.8,0.1c0.7,0,1.3-0.2,1.9-0.6l0,0
		c0.8-0.5,1.3-1.3,1.5-2.3c0-0.2,0.1-0.5,0.1-0.7c0-0.7-0.2-1.3-0.6-1.9c-1.9-2.9-4.4-5.2-7.5-6.8c-3-1.7-6.3-2.5-9.8-2.5
		c-5.7,0-10.6,2.1-14.7,6.2c-4,4.1-6.1,9.1-6.1,14.9c0,5.8,2,10.8,6.1,14.9c4,4.1,9,6.2,14.7,6.2c3.4,0,6.7-0.8,9.8-2.5
		c3-1.6,5.5-3.9,7.5-6.9c0.4-0.6,0.6-1.2,0.6-1.9c0-0.2,0-0.5-0.1-0.7C190.7,51.6,190.2,50.8,189.4,50.2z"/>
	<path class="st0" d="M218,57.4h-15.6V46.9h12.9c1,0,1.8-0.4,2.5-1c0.7-0.7,1.1-1.6,1.1-2.5c0-1-0.4-1.8-1.1-2.5
		c-0.7-0.7-1.5-1-2.5-1h-12.9V29.3H218c1,0,1.8-0.4,2.5-1.1c0.7-0.7,1-1.5,1-2.5c0-1-0.4-1.8-1-2.5c-0.7-0.7-1.6-1.1-2.5-1.1h-19.1
		c-1,0-1.8,0.4-2.5,1.1c-0.7,0.7-1,1.5-1,2.5V61c0,1,0.4,1.8,1,2.5c0.7,0.7,1.6,1.1,2.5,1.1H218c1,0,1.8-0.4,2.5-1.1
		c0.7-0.7,1-1.5,1-2.5c0-1-0.4-1.8-1-2.5C219.8,57.8,218.9,57.4,218,57.4z"/>
	<path class="st0" d="M252.2,23.2c-0.7-0.7-1.5-1-2.5-1s-1.8,0.4-2.5,1c-0.7,0.7-1.1,1.6-1.1,2.5v22.5c-3-5.5-7.6-13.7-13.7-24.3
		c-0.9-1.5-2.1-1.8-2.9-1.8c-0.4,0-0.7,0-1.1,0.1c-1.7,0.4-2.6,1.7-2.6,3.4v35.1c0,1,0.4,1.8,1,2.5c0.7,0.7,1.6,1.1,2.5,1.1
		c0.9,0,1.8-0.4,2.5-1.1c0.7-0.7,1-1.5,1-2.5V38.1c3,5.6,7.6,13.9,13.8,24.5c0.9,1.5,2,1.8,2.9,1.8c0.4,0,0.7,0,1.1-0.1
		c1.7-0.4,2.6-1.7,2.6-3.4V25.7C253.3,24.8,252.9,23.9,252.2,23.2z"/>
	<path class="st0" d="M285.8,23.3c-0.7-0.7-1.6-1.1-2.5-1.1h-22.1c-1,0-1.8,0.4-2.5,1.1c-0.7,0.7-1,1.5-1,2.5c0,1,0.4,1.8,1,2.5
		c0.7,0.7,1.6,1.1,2.5,1.1h7.5v31.5c0,1,0.4,1.8,1,2.5c0.7,0.7,1.6,1.1,2.5,1.1c1,0,1.8-0.4,2.5-1c0.7-0.7,1.1-1.5,1.1-2.5V29.3h7.5
		c1,0,1.8-0.4,2.5-1.1c0.7-0.7,1-1.5,1-2.5C286.8,24.8,286.4,23.9,285.8,23.3z"/>
</g>
<path class="st0" d="M69.9,31.6L69.9,31.6c-0.3-0.2-0.6-0.4-1-0.6c-10-5.8-20-11.6-30-17.4c-2.1-1.2-6.7-3.8-6.8-3.9
	c-0.5-0.3-1.2-0.5-1.9-0.5c-2,0-3.6,1.6-3.6,3.6c0,1.2,0.6,2.3,1.6,3c0.2,0.1,1.8,1,2.3,1.3c10.4,6,20.8,12.1,31.7,18.4
	c-7.7,4.5-15,8.8-22.3,13.1c-0.4,0.2-0.7,0.4-1.1,0.6v0l-2.2,1.3c-0.1,0-0.1,0.1-0.2,0.1l0,0l0,0c-1,0.6-1.7,1.8-1.7,3.1
	c0,2,1.6,3.6,3.6,3.6c0.7,0,1.4-0.2,2-0.6c0.1,0,0.2-0.1,0.3-0.1c0.8-0.4,1.6-0.9,2.4-1.4c8.7-5.1,17.3-10.2,26-15.4
	c0.1-0.1,0.3-0.2,0.4-0.3c0,0,0,0,0,0c0.2-0.1,0.4-0.2,0.6-0.4c0.1-0.1,0.2-0.2,0.2-0.2c1-0.8,1.6-2.1,1.6-3.5
	C72,33.9,71.2,32.5,69.9,31.6z"/>
<path class="st0" d="M28,76.8L28,76.8c0.3-0.2,0.7-0.3,1-0.5C39,70.5,49,64.8,59,59c2.1-1.2,6.6-3.9,6.8-4c0.6-0.3,1.1-0.8,1.4-1.4
	c1-1.7,0.4-3.9-1.3-4.9c-1.1-0.6-2.3-0.6-3.4-0.1c-0.2,0.1-1.7,1.1-2.3,1.4c-10.4,6-20.9,12-31.8,18.3c-0.1-9-0.1-17.4-0.2-25.8
	c0-0.4,0-0.8,0-1.2l0,0l0-2.6c0-0.1,0-0.2,0-0.2l0,0l0,0c0-1.2-0.7-2.4-1.8-3c-1.7-1-3.9-0.4-4.9,1.3c-0.4,0.6-0.5,1.3-0.5,2
	c0,0.1,0,0.2,0,0.3c0,0.9,0,1.9,0,2.8C21,51.9,21.1,62,21.2,72c0,0.2,0,0.3,0,0.5c0,0,0,0,0,0c0,0.2,0,0.4,0,0.7c0,0.1,0,0.3,0,0.3
	c0.2,1.3,1,2.5,2.2,3.2C25,77.5,26.6,77.5,28,76.8z"/>
<path class="st0" d="M9.5,18.2L9.5,18.2c0,0.4,0,0.7,0,1.1c0,11.6,0,23.1,0,34.7c0,2.4,0,7.7,0,7.9c0,0.6,0.1,1.3,0.5,1.9
	c1,1.7,3.2,2.3,4.9,1.3c1.1-0.6,1.7-1.7,1.8-2.9c0-0.2,0-2,0-2.7c0-12,0-24.1,0-36.7c7.8,4.4,15.2,8.5,22.5,12.7
	c0.4,0.2,0.7,0.4,1.1,0.6l0,0l2.2,1.3c0.1,0,0.1,0.1,0.2,0.1l0,0v0c1.1,0.6,2.4,0.6,3.5-0.1c1.7-1,2.3-3.2,1.3-4.9
	c-0.4-0.6-0.9-1.1-1.5-1.4c-0.1-0.1-0.2-0.1-0.3-0.2c-0.8-0.5-1.6-1-2.4-1.4c-8.8-4.9-17.6-9.9-26.3-14.8c-0.1-0.1-0.3-0.2-0.4-0.2
	c0,0,0,0,0,0c-0.2-0.1-0.4-0.2-0.6-0.3c-0.1,0-0.3-0.1-0.3-0.1c-1.2-0.4-2.6-0.3-3.9,0.4C10.4,15.2,9.6,16.7,9.5,18.2z"/>
</svg>
