<?xml version="1.0" encoding="utf-8"?>
<!-- Generator: Adobe Illustrator 20.0.0, SVG Export Plug-In . SVG Version: 6.00 Build 0)  -->
<svg version="1.1" id="Capa_1" xmlns="http://www.w3.org/2000/svg" xmlns:xlink="http://www.w3.org/1999/xlink" x="0px" y="0px"
	 viewBox="0 0 200 200" style="enable-background:new 0 0 200 200;" xml:space="preserve">
<style type="text/css">
	.st0{fill:#686F7E;}
</style>
<g>
	<path class="st0" d="M173.6,70.7L173.6,70.7c-0.8-0.5-1.6-1-2.4-1.5C146.1,54.6,121,40.1,95.9,25.5c-5.3-3.1-16.7-9.6-17.2-9.8
		c-1.4-0.8-3-1.3-4.7-1.3c-5,0-9,4.1-9,9c0,3.1,1.6,5.9,4,7.5c0.5,0.3,4.5,2.5,5.9,3.3c26.1,15.1,52.2,30.3,79.6,46.2
		c-19.4,11.4-37.6,22.1-55.9,32.9c-0.9,0.5-1.8,1.1-2.7,1.6v0l-5.6,3.2c-0.2,0.1-0.3,0.2-0.5,0.3l0,0l0,0c-2.6,1.6-4.3,4.4-4.3,7.7
		c0,5,4.1,9,9,9c1.9,0,3.6-0.6,5-1.5c0.2-0.1,0.5-0.2,0.7-0.4c2.1-1.1,4.1-2.2,6.1-3.4c21.8-12.8,43.5-25.7,65.2-38.5
		c0.4-0.2,0.7-0.4,1.1-0.7c0,0,0.1,0,0.1,0c0.5-0.3,0.9-0.6,1.4-0.9c0.2-0.1,0.6-0.5,0.6-0.5c2.5-2.1,4.1-5.3,4.1-8.8
		C178.9,76.3,176.8,72.8,173.6,70.7z"/>
	<path class="st0" d="M68.4,184L68.4,184c0.8-0.4,1.6-0.9,2.5-1.4c25.2-14.4,50.3-28.9,75.5-43.4c5.3-3,16.7-9.7,17.1-10
		c1.4-0.8,2.6-1.9,3.5-3.4c2.5-4.3,1-9.9-3.3-12.4c-2.7-1.6-5.9-1.6-8.5-0.3c-0.5,0.3-4.4,2.6-5.8,3.5c-26.2,15-52.3,30.1-79.8,45.9
		c-0.2-22.5-0.4-43.7-0.6-64.8c0-1,0-2.1-0.1-3.1l0,0l0-6.4c0-0.2,0-0.4,0-0.6l0,0l0,0c-0.1-3-1.7-5.9-4.5-7.6
		c-4.3-2.5-9.9-1-12.4,3.3c-0.9,1.6-1.3,3.4-1.2,5.1c0,0.3,0,0.5-0.1,0.8c-0.1,2.3-0.1,4.7-0.1,7c0.2,25.3,0.5,50.5,0.8,75.8
		c0,0.4,0,0.8,0,1.3c0,0,0,0.1,0,0.1c0,0.6,0,1.1,0.1,1.6c0,0.2,0.1,0.7,0.1,0.7c0.6,3.2,2.5,6.2,5.6,8
		C60.9,185.8,65,185.7,68.4,184z"/>
	<path class="st0" d="M22.1,36.9L22.1,36.9c0,0.9-0.1,1.8-0.1,2.8c0,29,0,58,0,87.1c0,6.1,0.1,19.3,0.1,19.8c0,1.6,0.4,3.2,1.2,4.7
		c2.5,4.3,8,5.8,12.4,3.3c2.7-1.6,4.3-4.3,4.5-7.2c0-0.6-0.1-5.1-0.1-6.7c0-30.2,0-60.4,0-92c19.6,11,38,21.4,56.5,31.8
		c0.9,0.5,1.8,1,2.7,1.5l0,0l5.5,3.2c0.2,0.1,0.3,0.2,0.5,0.3l0,0v0c2.7,1.4,6,1.5,8.8-0.1c4.3-2.5,5.8-8,3.3-12.4
		c-0.9-1.6-2.3-2.8-3.8-3.6c-0.2-0.2-0.5-0.3-0.7-0.5c-2-1.3-4-2.4-6-3.5C85,52.9,63,40.5,40.9,28.2c-0.4-0.2-0.7-0.4-1.1-0.6
		c0,0-0.1,0-0.1-0.1c-0.5-0.3-1-0.5-1.5-0.7c-0.2-0.1-0.7-0.3-0.7-0.3c-3.1-1.1-6.6-0.9-9.7,0.9C24.4,29.5,22.4,33.1,22.1,36.9z"/>
</g>
</svg>
