<?xml version="1.0" encoding="utf-8"?>
<!-- Generator: Adobe Illustrator 19.0.0, SVG Export Plug-In . SVG Version: 6.00 Build 0)  -->
<svg version="1.1" id="Capa_1" xmlns="http://www.w3.org/2000/svg" xmlns:xlink="http://www.w3.org/1999/xlink" x="0px" y="0px"
	 viewBox="0 0 800 198" style="enable-background:new 0 0 800 198;" xml:space="preserve">
<style type="text/css">
	.st0{fill:#009490;}
	.st1{fill:#808080;}
</style>
<g id="XMLID_74_">
	<g id="XMLID_75_">
		<ellipse id="XMLID_105_" class="st0" cx="264" cy="119.6" rx="39.8" ry="37.7"/>
		<g id="XMLID_76_">
			<g id="XMLID_121_">
				<path id="XMLID_133_" class="st1" d="M177.1,45.3L154,66.2c-15.7-15.8-33.4-23.7-53.1-23.7c-16.7,0-30.7,5.4-42,16.1
					c-11.3,10.7-17,24-17,39.9c0,22.7,9.6,39.2,28.9,49.3c9.2,4.9,19.4,7.3,30.7,7.3c10.6,0,20.2-2.1,28.9-6.3
					c7.2-3.6,15.1-9.4,23.6-17.4l22.4,22.2c-12,11-23.3,19-34.1,23.7c-12,5.2-25.7,7.8-41.3,7.8c-27,0-49.1-8.1-66.3-24.2
					c-17.2-16.1-25.8-37-25.8-62.6c0-33.6,15.2-58.4,45.5-74.5c14.6-7.8,30.3-11.6,47.1-11.6C131.9,12.1,157.1,23.2,177.1,45.3z"/>
				<path id="XMLID_130_" class="st1" d="M481,175h-30v-7c-14,10.7-24.5,16-39,16c-17.8,0-32.3-6.5-44.1-19.5
					c-11.2-12.5-16.7-27.2-16.7-44.3c0-17.5,5.4-32.4,16.1-44.7C378.8,62.5,393,56,411.1,56c15.5,0,25.9,5.5,39.9,16.6V12h30V175z
					 M453.7,119.8c0-10.2-3.2-18.6-9.7-25.4c-6.4-6.7-15-10.1-25.7-10.1c-10.4,0-18.9,3.5-25.4,10.5c-6.2,6.7-9.3,15.1-9.3,25.1
					c0,10,3.1,18.4,9.4,25.2c6.6,7.2,15.1,10.8,25.4,10.8c10.7,0,19.3-3.5,25.9-10.6C450.6,138.6,453.7,130.1,453.7,119.8z"/>
				<path id="XMLID_127_" class="st1" d="M639.3,123.6l-0.1,6.4H535.7c1.6,16,5.7,15.3,12.3,20.2c6.6,4.9,14.8,7.1,24.5,7.1
					c12,0,22.4-4.1,31-12l27.1,12c-13.2,17.8-32.6,26.7-58,26.7c-19.8,0-36.1-5.9-48.9-17.7c-12.9-11.8-19.3-27-19.3-45.7
					c0-18.4,6.2-33.8,18.7-46.2C535.6,62.2,551.5,56,570.9,56c20.2,0,36.7,6.4,49.4,18.6C633.3,87.3,639.6,103.8,639.3,123.6z
					 M606.7,101c-2.2,0-6.5-10.7-12.8-14.8c-6.4-4.1-13.5-5.2-21.4-5.2c-8.9,0-16.8,1-23.5,5.7c-4.2,3-8.2,14.2-11.8,14.2H606.7z"/>
				<rect id="XMLID_126_" x="746" y="146" class="st1" width="45" height="29"/>
				<path id="XMLID_125_" class="st1" d="M735.4,57c-10.5,0-21.5,1.2-30.8,4.5c-5.9,2.1-2.5,4.2-17.5,7.2V57h-29v133h29v-71.8
					c0-5.1,2.4-9.9,4.7-14.4c2.4-4.5,6.3-8.5,10.4-11.9c4.2-3.4,9.4-3.6,15-5.6c5.6-1.9,11.8-0.4,18.2-0.4H746V57H735.4z"/>
				<path id="XMLID_122_" class="st1" d="M263.8,56c-37.3,0-67.5,28.6-67.5,64c0,35.3,30.2,64,67.5,64c37.3,0,67.5-28.6,67.5-64
					C331.3,84.6,301,56,263.8,56z M263.5,154.9c-20.3,0-36.8-15.6-36.8-34.9c0-19.3,16.5-34.9,36.8-34.9c20.3,0,36.8,15.6,36.8,34.9
					C300.3,139.3,283.8,154.9,263.5,154.9z"/>
			</g>
		</g>
	</g>
</g>
</svg>
