<?xml version="1.0" encoding="utf-8"?>
<!-- Generator: Adobe Illustrator 19.0.0, SVG Export Plug-In . SVG Version: 6.00 Build 0)  -->
<svg version="1.1" id="Capa_1" xmlns="http://www.w3.org/2000/svg" xmlns:xlink="http://www.w3.org/1999/xlink" x="0px" y="0px"
	 viewBox="0 0 800 800" style="enable-background:new 0 0 800 800;" xml:space="preserve">
<style type="text/css">
	.st0{fill:#333333;}
</style>
<g id="XMLID_12_">
	<path id="XMLID_10_" class="st0" d="M561.7,222.5L561.7,222.5c-1.8-1.1-3.5-2.2-5.3-3.3c-55-32-110.1-63.8-165.1-95.8
		c-11.6-6.8-36.6-21.1-37.7-21.5c-3.1-1.8-6.6-2.9-10.3-2.9c-11,0-19.7,9-19.7,19.7c0,6.8,3.5,12.9,8.8,16.4
		c1.1,0.7,9.9,5.5,12.9,7.2c57.2,33.1,114.5,66.4,174.5,101.3c-42.5,25-82.4,48.5-122.6,72.1c-2,1.1-3.9,2.4-5.9,3.5l0,0l-12.3,7
		c-0.4,0.2-0.7,0.4-1.1,0.7l0,0l0,0c-5.7,3.5-9.4,9.6-9.4,16.9c0,11,9,19.7,19.7,19.7c4.2,0,7.9-1.3,11-3.3c0.4-0.2,1.1-0.4,1.5-0.9
		c4.6-2.4,9-4.8,13.4-7.5c47.8-28.1,95.4-56.4,143-84.4c0.9-0.4,1.5-0.9,2.4-1.5h0.2c1.1-0.7,2-1.3,3.1-2c0.4-0.2,1.3-1.1,1.3-1.1
		c5.5-4.6,9-11.6,9-19.3C573.3,234.8,568.7,227.1,561.7,222.5z"/>
	<path id="XMLID_9_" class="st0" d="M331,470.9L331,470.9c1.8-0.9,3.5-2,5.5-3.1c55.3-31.6,110.3-63.4,165.6-95.2
		c11.6-6.6,36.6-21.3,37.5-21.9c3.1-1.8,5.7-4.2,7.7-7.5c5.5-9.4,2.2-21.7-7.2-27.2c-5.9-3.5-12.9-3.5-18.6-0.7
		c-1.1,0.7-9.6,5.7-12.7,7.7c-57.5,32.9-114.7,66-175,100.6c-0.4-49.3-0.9-95.8-1.3-142.1c0-2.2,0-4.6-0.2-6.8l0,0v-14
		c0-0.4,0-0.9,0-1.3l0,0l0,0c-0.2-6.6-3.7-12.9-9.9-16.7c-9.4-5.5-21.7-2.2-27.2,7.2c-2,3.5-2.9,7.5-2.6,11.2c0,0.7,0,1.1-0.2,1.8
		c-0.2,5-0.2,10.3-0.2,15.3c0.4,55.5,1.1,110.7,1.8,166.2c0,0.9,0,1.8,0,2.9v0.2c0,1.3,0,2.4,0.2,3.5c0,0.4,0.2,1.5,0.2,1.5
		c1.3,7,5.5,13.6,12.3,17.5C314.5,474.9,323.5,474.7,331,470.9z"/>
	<path id="XMLID_1_" class="st0" d="M229.5,148.4L229.5,148.4c0,2-0.2,3.9-0.2,6.1c0,63.6,0,127.2,0,191c0,13.4,0.2,42.3,0.2,43.4
		c0,3.5,0.9,7,2.6,10.3c5.5,9.4,17.5,12.7,27.2,7.2c5.9-3.5,9.4-9.4,9.9-15.8c0-1.3-0.2-11.2-0.2-14.7c0-66.2,0-132.4,0-201.7
		c43,24.1,83.3,46.9,123.9,69.7c2,1.1,3.9,2.2,5.9,3.3l0,0l12.1,7c0.4,0.2,0.7,0.4,1.1,0.7l0,0l0,0c5.9,3.1,13.2,3.3,19.3-0.2
		c9.4-5.5,12.7-17.5,7.2-27.2c-2-3.5-5-6.1-8.3-7.9c-0.4-0.4-1.1-0.7-1.5-1.1c-4.4-2.9-8.8-5.3-13.2-7.7
		c-48-27.4-96.3-54.6-144.7-81.6c-0.9-0.4-1.5-0.9-2.4-1.3c0,0-0.2,0-0.2-0.2c-1.1-0.7-2.2-1.1-3.3-1.5c-0.4-0.2-1.5-0.7-1.5-0.7
		c-6.8-2.4-14.5-2-21.3,2C234.5,132.1,230.1,140,229.5,148.4z"/>
</g>
<g id="XMLID_2_">
	<path id="XMLID_8_" class="st0" d="M156.5,710.9l-50.9-127.2c-1.1-2.5-2.5-4.4-4.7-5.8c-2.2-1.5-4.7-2.2-7.3-2.2s-5.1,0.7-7.3,2.2
		c-2.2,1.5-4,3.3-4.7,5.8L29.9,710.9c-1.5,3.3-1.1,6.5,0,9.8c1.5,3.3,4,5.8,7.3,6.9c3.3,1.1,6.5,1.1,9.8,0c3.3-1.5,5.8-4,6.9-6.9
		l39.6-97.8l39.3,97.8c1.1,2.5,2.5,4.4,4.7,5.8c2.2,1.5,4.7,2.2,7.3,2.2c1.8,0,3.3-0.4,4.7-1.1c3.3-1.1,5.8-3.6,7.3-6.9
		C157.9,717.4,157.9,714.1,156.5,710.9z"/>
	<path id="XMLID_7_" class="st0" d="M253.9,653.4c-5.8-4.4-15.3-8-28.4-11.6c-13.1-3.6-18.2-6.2-20.4-8c-3.3-2.5-5.1-6.5-5.1-12
		c0-5.5,2.2-9.8,6.5-13.8s9.8-5.8,16-5.8c5.5,0,9.8,1.5,13.8,4.4c4,2.9,6.5,6.9,8,12.4c1.1,3.3,2.9,5.8,6.2,7.6
		c2.9,1.5,6.2,1.8,9.5,1.1c3.3-1.1,5.8-2.9,7.6-6.2c1.5-2.9,1.8-6.2,1.1-9.5c-2.9-10.5-8.7-18.9-17.1-25.1
		c-8.4-6.2-18.2-9.5-29.1-9.5c-13.1,0-24,4.4-33.4,13.1c-9.1,8.7-13.8,19.3-13.8,31.6c0,13.8,5.5,24.7,15.6,32.4
		c5.8,4.4,14.9,8,28.4,11.6c13.1,3.6,18.5,6.2,20.7,8c3.3,2.5,5.1,6.5,5.1,12.4c0,5.5-2.2,9.8-6.5,13.8c-4.4,4-9.5,5.8-16,5.8
		c-5.5,0-10.5-1.5-14.9-4.7c-4.7-3.3-8-6.9-9.8-12c-1.5-3.3-3.6-5.5-6.5-6.9c-3.3-1.5-6.5-1.5-9.8,0c-3.3,1.5-5.5,3.6-6.9,6.9
		s-1.5,6.5,0,9.5c3.6,9.5,10.2,17.1,19.3,23.3l0,0c8.7,5.8,18.5,9.1,29.1,9.1c13.1,0,24.4-4.4,33.4-13.1s13.8-19.3,13.8-31.6
		C269.5,672,264.4,661.1,253.9,653.4z"/>
	<path id="XMLID_6_" class="st0" d="M419.7,678.1c-2.2-1.5-4.4-2.2-6.9-2.2c-0.7,0-1.8,0-2.5,0.4c-3.6,0.7-6.2,2.5-8.4,5.5
		c-4.7,6.9-10.5,12.4-17.8,16.4c-7.3,4-14.9,5.8-23.3,5.8c-13.8,0-25.1-4.7-34.9-14.9c-9.8-10.2-14.5-21.8-14.5-36s4.7-25.8,14.5-36
		c9.8-9.8,21.1-14.9,34.9-14.9c8,0,16,1.8,23.3,5.8c7.3,4,13.1,9.5,17.8,16.4c1.8,2.9,4.7,5.1,8.4,5.5c0.7,0,1.8,0.4,2.9,0.4
		c2.5,0,4.7-0.7,6.9-2.2l0,0c2.9-1.8,4.7-4.7,5.5-8.4c0-0.7,0.4-1.8,0.4-2.5c0-2.5-0.7-4.7-2.2-6.9c-6.9-10.5-16-18.9-27.3-24.7
		c-10.9-6.2-22.9-9.1-35.6-9.1c-20.7,0-38.5,7.6-53.4,22.5c-14.5,14.9-22.2,33.1-22.2,54.2s7.3,39.3,22.2,54.2
		c14.5,14.9,32.7,22.5,53.4,22.5c12.4,0,24.4-2.9,35.6-9.1c10.9-5.8,20-14.2,27.3-25.1c1.5-2.2,2.2-4.4,2.2-6.9c0-0.7,0-1.8-0.4-2.5
		C424.4,683.2,422.6,680.3,419.7,678.1z"/>
	<path id="XMLID_5_" class="st0" d="M523.6,704.3h-56.7v-38.2h46.9c3.6,0,6.5-1.5,9.1-3.6c2.5-2.5,4-5.8,4-9.1c0-3.6-1.5-6.5-4-9.1
		c-2.5-2.5-5.5-3.6-9.1-3.6h-46.9v-38.5h56.7c3.6,0,6.5-1.5,9.1-4s3.6-5.5,3.6-9.1s-1.5-6.5-3.6-9.1c-2.5-2.5-5.8-4-9.1-4h-69.4
		c-3.6,0-6.5,1.5-9.1,4c-2.5,2.5-3.6,5.5-3.6,9.1v128.3c0,3.6,1.5,6.5,3.6,9.1c2.5,2.5,5.8,4,9.1,4h69.4c3.6,0,6.5-1.5,9.1-4
		s3.6-5.5,3.6-9.1s-1.5-6.5-3.6-9.1C530.2,705.8,526.9,704.3,523.6,704.3z"/>
	<path id="XMLID_4_" class="st0" d="M648,580c-2.5-2.5-5.5-3.6-9.1-3.6c-3.6,0-6.5,1.5-9.1,3.6c-2.5,2.5-4,5.8-4,9.1v81.8
		c-10.9-20-27.6-49.8-49.8-88.3c-3.3-5.5-7.6-6.5-10.5-6.5c-1.5,0-2.5,0-4,0.4c-6.2,1.5-9.5,6.2-9.5,12.4v127.6
		c0,3.6,1.5,6.5,3.6,9.1c2.5,2.5,5.8,4,9.1,4s6.5-1.5,9.1-4c2.5-2.5,3.6-5.5,3.6-9.1v-82.2c10.9,20.4,27.6,50.5,50.2,89.1
		c3.3,5.5,7.3,6.5,10.5,6.5c1.5,0,2.5,0,4-0.4c6.2-1.5,9.5-6.2,9.5-12.4v-128C652,585.8,650.5,582.5,648,580z"/>
	<path id="XMLID_3_" class="st0" d="M770.1,580.3c-2.5-2.5-5.8-4-9.1-4h-80.3c-3.6,0-6.5,1.5-9.1,4c-2.5,2.5-3.6,5.5-3.6,9.1
		c0,3.6,1.5,6.5,3.6,9.1c2.5,2.5,5.8,4,9.1,4H708V717c0,3.6,1.5,6.5,3.6,9.1c2.5,2.5,5.8,4,9.1,4c3.6,0,6.5-1.5,9.1-3.6
		c2.5-2.5,4-5.5,4-9.1V602.2H761c3.6,0,6.5-1.5,9.1-4s3.6-5.5,3.6-9.1C773.8,585.8,772.3,582.5,770.1,580.3z"/>
</g>
</svg>
