<svg xmlns="http://www.w3.org/2000/svg" viewBox="0 0 67.89 100.33"><defs><style>.cls-1{fill:#28d8b2;}</style></defs><title>Recurso 2</title><g id="Capa_2" data-name="Capa 2"><g id="Genero"><path class="cls-1" d="M67.89,33.71A33.5,33.5,0,0,0,34.48,0C15.88,0,0,15.12,0,33.71,0,50.17,11.76,63.93,26.76,66.84v9.94H19.66c-3.13,0-5.66,1.88-5.66,5s2.53,5,5.66,5h7.09V94.7a6,6,0,0,0,12,0V86.78H49.09c3.13,0,5.66-1.88,5.66-5s-2.53-5-5.66-5H38.76V67C53.76,64.57,67.89,50.56,67.89,33.71ZM34.74,56.12A22.41,22.41,0,1,1,57.13,33.71,22.44,22.44,0,0,1,34.74,56.12Z"/></g></g></svg>