<?xml version="1.0" encoding="utf-8"?>
<!-- Generator: Adobe Illustrator 19.0.0, SVG Export Plug-In . SVG Version: 6.00 Build 0)  -->
<svg version="1.1" id="Capa_1" xmlns="http://www.w3.org/2000/svg" xmlns:xlink="http://www.w3.org/1999/xlink" x="0px" y="0px"
	 viewBox="0 0 800 800" style="enable-background:new 0 0 800 800;" xml:space="preserve">
<style type="text/css">
	.st0{fill:#F8AE13;}
	.st1{fill:#FFFFFF;}
	.st2{fill:#FFD68D;}
	.st3{fill:#DDDDDD;}
</style>
<g id="_x31_">
	<g>
		<path class="st0" d="M208,196.5c51.9-51.9,121-80.5,194.4-80.5s142.5,28.6,194.4,80.5c51.9,51.9,80.5,121,80.5,194.4
			s-28.6,142.5-80.5,194.4c-51.9,51.9-121,80.5-194.4,80.5S259.9,637.2,208,585.3s-80.5-121-80.5-194.4
			C127.5,317.4,156.1,248.4,208,196.5z M197.6,186.1c-54.7,54.7-84.8,127.4-84.8,204.8s30.1,150.1,84.8,204.8s127.4,84.8,204.8,84.8
			s150.1-30.1,204.8-84.8S692,468.3,692,390.9s-30.1-150.1-84.8-204.8s-127.4-84.8-204.8-84.8C325,101.2,252.3,131.4,197.6,186.1z"
			/>
	</g>
	<g>
		<g>
			<path id="XMLID_29_" class="st0" d="M326.1,751c-33.9,8.4-59.5,7.7-89.7-10.4c33.5-53.9,109.2-72.8,164-40.8
				C382.3,729.9,360,742.6,326.1,751"/>
		</g>
		<g>
			<path id="XMLID_28_" class="st0" d="M211,703.3c-34.8-3.1-58.7-12.1-81.4-39c49.2-40.1,126.9-33.2,168.4,14.8
				C271,701.7,245.8,706.4,211,703.3"/>
		</g>
		<g>
			<path id="XMLID_27_" class="st0" d="M117.7,620.7c-31.9-14.2-51.6-30.6-64.3-63.4c59.6-21.9,130.8,9.9,154.4,68.9
				C174.9,638.7,149.6,635,117.7,620.7"/>
		</g>
		<g>
			<path id="XMLID_26_" class="st0" d="M56.3,512.3c-25.5-23.8-38.8-45.7-40.1-80.8c63.5-1.3,120.5,52,123.5,115.4
				C104.6,547.9,81.9,536.1,56.3,512.3"/>
		</g>
		<g>
			<path id="XMLID_25_" class="st0" d="M33.6,389.7c-16.4-30.8-21.8-55.9-11.6-89.5c60.4,19.4,97,88.4,79.3,149.3
				C67.7,439.1,50,420.6,33.6,389.7"/>
		</g>
		<g>
			<path id="XMLID_24_" class="st0" d="M52.1,266.5c-5.4-34.5-2.5-59.9,18.1-88.4c50.8,38,63,115.1,26.3,167
				C68.2,324.3,57.5,301,52.1,266.5"/>
		</g>
	</g>
	<g>
		<path id="XMLID_23_" class="st0" d="M474.9,751c33.9,8.4,59.5,7.7,89.7-10.4c-33.5-53.9-109.2-72.8-164-40.8
			C418.7,729.9,441,742.6,474.9,751"/>
	</g>
	<g>
		<path id="XMLID_22_" class="st0" d="M394.2,770.6c-8.3,15.3-17.2,24.4-34,29.4c-8.5-30.4,10.1-64.5,40.3-73.9
			C405.4,742.9,402.5,755.3,394.2,770.6"/>
	</g>
	<g>
		<path id="XMLID_21_" class="st0" d="M406.8,770.6c8.3,15.3,17.2,24.4,34,29.4c8.5-30.4-10.1-64.5-40.3-73.9
			C395.6,742.9,398.5,755.3,406.8,770.6"/>
	</g>
	<g>
		<path id="XMLID_20_" class="st0" d="M590,703.3c34.8-3.1,58.7-12.1,81.4-39c-49.2-40.1-126.9-33.2-168.4,14.8
			C530,701.7,555.2,706.4,590,703.3"/>
	</g>
	<g>
		<path id="XMLID_19_" class="st0" d="M683.3,620.7c31.9-14.2,51.6-30.6,64.3-63.4c-59.6-21.9-130.8,9.9-154.4,68.9
			C626.1,638.7,651.4,635,683.3,620.7"/>
	</g>
	<g>
		<path id="XMLID_18_" class="st0" d="M744.7,512.3c25.5-23.8,38.8-45.7,40.1-80.8c-63.5-1.3-120.5,52-123.6,115.4
			C696.4,547.9,719.2,536.1,744.7,512.3"/>
	</g>
	<g>
		<path id="XMLID_17_" class="st0" d="M767.4,389.7c16.4-30.8,21.8-55.9,11.6-89.5c-60.4,19.4-97,88.4-79.3,149.3
			C733.3,439.1,751,420.6,767.4,389.7"/>
	</g>
	<g>
		<path id="XMLID_16_" class="st0" d="M748.9,266.5c5.4-34.5,2.5-59.9-18.1-88.4c-50.8,38-63,115.1-26.3,167
			C732.8,324.3,743.5,301,748.9,266.5"/>
	</g>
	<g>
		<path class="st0" d="M674.5,199.4l-12,8.5c7.8,11.1,14.9,22.7,21.3,34.8l13-6.8C690.1,223.2,682.6,211,674.5,199.4 M616.8,136.6
			l-9.5,11.2c10.4,8.8,20.2,18.2,29.5,28.2l10.8-9.9C638,155.7,627.7,145.8,616.8,136.6 M545.2,90.5l-6.3,13.3
			c12.3,5.9,24.2,12.5,35.7,19.9l8-12.4C570.5,103.5,558.1,96.6,545.2,90.5 M464.1,64l-2.7,14.4c13.5,2.5,26.7,5.9,39.6,10.2l4.6-14
			C492,70.2,478.2,66.6,464.1,64 M295.4,75.9l4.7,13.9c12.7-4.3,25.9-7.9,39.4-10.6l-2.9-14.4C322.5,67.7,308.7,71.4,295.4,75.9
			 M218.8,113.5l8.1,12.2c11.3-7.5,23.1-14.3,35.4-20.3l-6.5-13.2C243,98.5,230.6,105.6,218.8,113.5 M154.4,169.3l11,9.8
			c9-10.1,18.8-19.7,29.1-28.7l-9.6-11.1C174,148.6,163.9,158.7,154.4,169.3 M106.2,239.6l13.1,6.7c6.2-12.1,13.2-23.9,20.9-35.1
			l-12.1-8.3C120,214.6,112.7,226.9,106.2,239.6"/>
	</g>
	<g>
		<path class="st0" d="M402.4,149.8c132.9,0,241.1,108.1,241.1,241.1c0,132.9-108.1,241.1-241.1,241.1
			c-132.9,0-241.1-108.2-241.1-241.1C161.3,257.9,269.5,149.8,402.4,149.8z M146.3,390.9c0,141.2,114.9,256.1,256.1,256.1
			s256.1-114.9,256.1-256.1S543.6,134.8,402.4,134.8S146.3,249.6,146.3,390.9z"/>
	</g>
	<polygon id="XMLID_5_" class="st0" points="402.4,-0.3 388.1,28.7 356.1,33.3 379.2,55.9 373.8,87.8 402.4,72.7 431,87.8 
		425.6,55.9 448.7,33.3 416.7,28.7 	"/>
	<g>
		<path id="XMLID_4_" class="st0" d="M177.3,390.9c0,4.5,34.6,8,34.9,12.4c0.3,4.5-33.6,12.2-33,16.6s35.3,3.3,36.1,7.6
			c0.8,4.3-31.8,16.3-30.7,20.5s35.4-1.4,36.8,2.7s-29.5,20-27.9,24s34.9-5.9,36.8-2c1.8,3.9-26.8,23.5-24.8,27.2
			c2.1,3.7,33.9-10.2,36.2-6.7c2.3,3.6-23.8,26.5-21.3,30c2.5,3.4,32.3-14.4,35-11.1c2.7,3.3-20.4,29.2-17.6,32.3
			c2.9,3.1,30.3-18.2,33.4-15.3c3,2.9-16.8,31.4-13.6,34.1c3.2,2.7,27.9-21.7,31.3-19.2s-12.9,33.2-9.4,35.5s25.1-25,28.7-22.9
			s-8.8,34.5-5,36.4c3.8,1.8,21.9-27.8,25.7-26.2c3.9,1.6-4.5,35.3-0.5,36.7c3.6,1.3,17.7-30.4,21.5-29.4c3.7,1.1-1,35.4,2.8,36.3
			c3.8,0.9,14.2-32.2,18.1-31.6c3.8,0.6,3,35.3,6.9,35.8c3.9,0.4,10.6-33.6,14.5-33.4c3.7,0.2,6.4,34.8,10.1,34.8
			c4.5,0,8-34.6,12.4-34.9c4.5-0.3,12.2,33.6,16.6,33s3.3-35.3,7.6-36.2c4.3-0.8,16.3,31.8,20.5,30.7s-1.4-35.4,2.7-36.8
			c4.1-1.4,20,29.5,24,27.9s-5.9-34.9-2-36.8c3.9-1.8,23.5,26.8,27.2,24.8c3.7-2.1-10.2-33.9-6.7-36.2c3.6-2.3,26.5,23.8,30,21.3
			c3.4-2.5-14.4-32.3-11.1-35c3.3-2.7,29.2,20.4,32.3,17.5s-18.2-30.3-15.3-33.4c2.9-3.1,31.4,16.8,34.1,13.6
			c2.7-3.2-21.7-27.9-19.2-31.3s33.2,12.9,35.5,9.4S566,488.5,568,484.9c2.1-3.7,34.5,8.8,36.4,5s-27.8-21.9-26.2-25.7
			c1.6-3.9,35.3,4.5,36.7,0.5c1.3-3.6-30.4-17.7-29.4-21.5c1.1-3.7,35.4,1,36.3-2.8c0.9-3.8-32.2-14.2-31.6-18.1
			c0.6-3.8,35.3-3,35.8-6.9c0.4-3.9-33.6-10.6-33.4-14.5c0.2-3.7,34.8-6.4,34.8-10.1c0-4.5-34.6-8-34.9-12.4
			c-0.3-4.5,33.6-12.2,33-16.6s-35.3-3.3-36.2-7.6c-0.8-4.3,31.8-16.3,30.7-20.5s-35.4,1.4-36.8-2.7c-1.4-4.1,29.5-20,27.9-24
			s-34.9,5.9-36.8,2c-1.8-3.9,26.8-23.5,24.8-27.2c-2.1-3.7-33.9,10.2-36.2,6.7c-2.3-3.6,23.8-26.5,21.3-30
			c-2.5-3.4-32.3,14.4-35,11.1s20.4-29.2,17.6-32.3c-2.9-3.1-30.3,18.2-33.4,15.3c-3.1-2.9,16.8-31.4,13.6-34.1
			c-3.2-2.7-27.9,21.7-31.3,19.2c-3.4-2.5,12.9-33.2,9.4-35.5s-25.1,25-28.7,22.9s8.8-34.5,5-36.4c-3.8-1.8-21.9,27.8-25.8,26.2
			s4.5-35.3,0.5-36.7c-3.6-1.3-17.7,30.4-21.5,29.4c-3.7-1.1,1-35.4-2.8-36.3c-3.8-0.9-14.2,32.2-18.1,31.6
			c-3.8-0.6-3-35.3-6.9-35.8c-3.9-0.4-10.6,33.6-14.5,33.4c-3.6-0.2-6.4-34.8-10.1-34.8c-4.5,0-8,34.6-12.4,34.9
			c-4.5,0.3-12.2-33.6-16.6-33s-3.3,35.3-7.6,36.2c-4.3,0.8-16.3-31.8-20.5-30.7s1.4,35.4-2.7,36.8c-4.1,1.4-20-29.5-24-27.9
			s5.9,34.9,2,36.8c-3.9,1.8-23.5-26.8-27.2-24.8c-3.7,2.1,10.2,33.9,6.7,36.2c-3.6,2.3-26.5-23.8-30-21.3
			c-3.4,2.5,14.4,32.3,11.1,35s-29.2-20.4-32.3-17.6c-3.1,2.9,18.2,30.3,15.3,33.4s-31.4-16.8-34.1-13.6
			c-2.7,3.2,21.7,27.9,19.2,31.3s-33.2-12.9-35.5-9.4s25,25,22.9,28.7c-2.1,3.6-34.5-8.8-36.4-5c-1.9,3.8,27.8,21.9,26.2,25.7
			c-1.6,3.9-35.3-4.5-36.7-0.5c-1.3,3.6,30.4,17.7,29.4,21.5c-1.1,3.7-35.4-1-36.3,2.8c-0.9,3.8,32.2,14.2,31.6,18.1
			c-0.6,3.8-35.3,3-35.8,6.9c-0.4,3.9,33.6,10.6,33.4,14.5C211.8,384.4,177.3,387.2,177.3,390.9z"/>
	</g>
</g>
<polygon id="XMLID_3_" class="st1" points="450.8,436.2 431.5,475.2 388.4,481.5 419.6,511.9 412.2,554.7 450.8,534.5 489.3,554.7 
	481.9,511.9 513.1,481.5 470,475.2 "/>
<polygon id="XMLID_2_" class="st1" points="335,506.5 326.2,524.3 306.6,527.1 320.8,540.9 317.4,560.5 335,551.2 352.5,560.5 
	349.2,540.9 363.3,527.1 343.7,524.3 "/>
<polygon id="XMLID_1_" class="st1" points="473.5,234.7 443.9,294.8 377.5,304.5 425.5,351.3 414.2,417.3 473.5,386.1 532.9,417.3 
	521.6,351.3 569.6,304.5 503.2,294.8 "/>
<polygon id="XMLID_6_" class="st2" points="2169.2,621.6 2171.6,632.5 2163.9,640.6 2175,641.7 2180.4,651.6 2184.9,641.3 
	2195.9,639.3 2187.6,631.8 2188.9,620.7 2179.3,626.4 "/>
<polygon id="XMLID_7_" class="st2" points="2105.8,507.8 2107.6,516.1 2101.8,522.2 2110.2,523 2114.2,530.5 2117.6,522.7 
	2125.9,521.2 2119.6,515.5 2120.7,507.2 2113.4,511.4 "/>
<polygon id="XMLID_8_" class="st2" points="2186,430.7 2188.6,442.7 2180.2,451.6 2192.4,452.8 2198.3,463.6 2203.3,452.3 
	2215.3,450.1 2206.2,441.9 2207.7,429.8 2197.1,436 "/>
<polygon id="XMLID_9_" class="st2" points="1977.2,543.2 1979.3,552.9 1972.4,560.2 1982.3,561.1 1987.1,569.9 1991.1,560.8 
	2000.9,558.9 1993.5,552.3 1994.7,542.4 1986.2,547.4 "/>
<polygon id="XMLID_10_" class="st2" points="2204.3,756.9 2206.7,768.1 2198.9,776.4 2210.2,777.5 2215.7,787.6 2220.4,777.1 
	2231.6,775 2223.1,767.3 2224.5,756 2214.6,761.8 "/>
<polygon id="XMLID_11_" class="st3" points="30,739.3 34.6,760.7 19.6,776.6 41.3,778.7 51.8,798 60.7,777.9 82.2,773.9 65.9,759.3 
	68.6,737.7 49.7,748.7 "/>
<polygon id="XMLID_12_" class="st2" points="2273.7,238.9 2275,244.9 2270.8,249.3 2276.9,249.9 2279.8,255.3 2282.3,249.7 
	2288.3,248.6 2283.8,244.5 2284.5,238.4 2279.2,241.5 "/>
<polygon id="XMLID_13_" class="st3" points="739.8,747.4 742.4,759.1 734.1,767.8 746,769 751.8,779.6 756.6,768.6 768.4,766.4 
	759.5,758.4 761,746.5 750.6,752.6 "/>
<polygon id="XMLID_14_" class="st2" points="1939.8,716.3 1942.4,728.3 1934,737.2 1946.2,738.5 1952.1,749.3 1957.1,738 
	1969.1,735.7 1960,727.5 1961.5,715.4 1950.9,721.6 "/>
<polygon id="XMLID_15_" class="st2" points="2322.3,462 2324.1,470.3 2318.3,476.4 2326.7,477.2 2330.7,484.7 2334.1,476.9 
	2342.4,475.4 2336.1,469.7 2337.2,461.4 2329.9,465.7 "/>
<polygon id="XMLID_30_" class="st2" points="1885.6,428 1888.2,440 1879.8,448.9 1892,450.1 1897.9,460.9 1902.9,449.6 
	1914.9,447.4 1905.8,439.2 1907.3,427.1 1896.7,433.3 "/>
<polygon id="XMLID_32_" class="st2" points="1905,630.2 1906.3,636.2 1902.1,640.7 1908.2,641.3 1911.1,646.6 1913.6,641 
	1919.6,639.9 1915,635.8 1915.8,629.8 1910.5,632.9 "/>
<polygon id="XMLID_33_" class="st2" points="2309.6,614.4 2310.9,620.4 2306.7,624.8 2312.8,625.5 2315.7,630.8 2318.2,625.2 
	2324.2,624.1 2319.6,620 2320.4,614 2315.1,617 "/>
<polygon id="XMLID_34_" class="st3" points="762.6,128.4 764.5,137.2 758.4,143.7 767.3,144.5 771.6,152.4 775.2,144.2 784,142.6 
	777.3,136.6 778.4,127.7 770.7,132.3 "/>
<polygon id="XMLID_49_" class="st2" points="2370.6,157.8 2373,168.7 2365.3,176.8 2376.4,177.9 2381.8,187.8 2386.3,177.5 
	2397.3,175.5 2388.9,168 2390.3,157 2380.7,162.6 "/>
<polygon id="XMLID_48_" class="st2" points="2355.9,33.3 2357.7,41.5 2351.9,47.6 2360.3,48.5 2364.4,55.9 2367.8,48.2 2376.1,46.6 
	2369.8,41 2370.8,32.6 2363.5,36.9 "/>
<polygon id="XMLID_46_" class="st2" points="2227.3,68.6 2229.4,78.4 2222.6,85.6 2232.5,86.6 2237.3,95.4 2241.3,86.2 2251.1,84.4 
	2243.7,77.7 2244.9,67.9 2236.3,72.9 "/>
<polygon id="XMLID_45_" class="st2" points="2405.7,293.1 2408.1,304.3 2400.2,312.6 2411.6,313.7 2417.1,323.8 2421.7,313.3 
	2433,311.2 2424.4,303.5 2425.9,292.2 2416,298 "/>
<polygon id="XMLID_44_" class="st3" points="714.2,611.9 717.1,625.5 707.6,635.7 721.4,637 728.2,649.3 733.8,636.5 747.5,634 
	737.1,624.6 738.8,610.8 726.8,617.9 "/>
<polygon id="XMLID_43_" class="st2" points="2523.9,-235.7 2525.2,-229.7 2521,-225.2 2527,-224.6 2530,-219.2 2532.5,-224.9 
	2538.5,-226 2533.9,-230.1 2534.7,-236.1 2529.4,-233 "/>
<polygon id="XMLID_42_" class="st2" points="2042.7,102 2045.2,113.7 2037,122.4 2048.9,123.6 2054.7,134.2 2059.5,123.1 
	2071.3,121 2062.4,112.9 2063.8,101.1 2053.5,107.1 "/>
<polygon id="XMLID_41_" class="st2" points="2190,241.8 2192.6,253.8 2184.2,262.7 2196.4,263.9 2202.3,274.7 2207.2,263.4 
	2219.3,261.2 2210.1,253 2211.6,240.9 2201.1,247 "/>
<polygon id="XMLID_40_" class="st2" points="2572.5,-12.5 2574.2,-4.3 2568.5,1.9 2576.8,2.7 2580.9,10.1 2584.3,2.4 2592.6,0.8 
	2586.3,-4.8 2587.3,-13.1 2580.1,-8.9 "/>
<polygon id="XMLID_39_" class="st3" points="640.2,715.9 644.2,734.7 631,748.7 650.1,750.6 659.3,767.5 667.1,749.8 686,746.3 
	671.7,733.5 674,714.5 657.5,724.2 "/>
<polygon id="XMLID_38_" class="st3" points="751.5,18.1 753.8,29 746.2,37.1 757.3,38.2 762.6,48 767.1,37.8 778.1,35.7 769.8,28.3 
	771.2,17.2 761.5,22.9 "/>
<polygon id="XMLID_37_" class="st2" points="2155.2,155.7 2156.4,161.7 2152.2,166.1 2158.3,166.7 2161.3,172.1 2163.7,166.5 
	2169.7,165.4 2165.2,161.3 2165.9,155.2 2160.7,158.3 "/>
<polygon id="XMLID_36_" class="st2" points="2559.7,139.9 2561,145.9 2556.8,150.3 2562.9,150.9 2565.9,156.3 2568.3,150.7 
	2574.3,149.6 2569.8,145.5 2570.5,139.4 2565.3,142.5 "/>
<polygon id="XMLID_35_" class="st3" points="759.4,669 762.1,681.6 753.3,690.9 766,692.2 772.2,703.5 777.4,691.7 790,689.3 
	780.4,680.7 782,668.1 770.9,674.5 "/>
<polygon id="XMLID_64_" class="st2" points="2571.3,544 2573.6,555 2566,563.1 2577.1,564.2 2582.4,574 2586.9,563.8 2597.9,561.7 
	2589.6,554.2 2591,543.2 2581.3,548.8 "/>
<polygon id="XMLID_63_" class="st2" points="2556.6,419.5 2558.4,427.8 2552.6,433.9 2561,434.7 2565,442.1 2568.4,434.4 
	2576.7,432.9 2570.4,427.2 2571.5,418.9 2564.2,423.1 "/>
<polygon id="XMLID_62_" class="st2" points="2636.9,342.4 2639.4,354.4 2631,363.3 2643.2,364.5 2649.1,375.3 2654.1,364 
	2666.1,361.8 2657,353.6 2658.5,341.5 2647.9,347.7 "/>
<polygon id="XMLID_61_" class="st2" points="2428,454.9 2430.1,464.6 2423.3,471.8 2433.2,472.8 2437.9,481.6 2442,472.4 
	2451.8,470.6 2444.3,464 2445.6,454.1 2437,459.1 "/>
<polygon id="XMLID_60_" class="st2" points="2606.3,679.3 2608.8,690.5 2600.9,698.8 2612.3,700 2617.8,710 2622.4,699.5 
	2633.6,697.4 2625.1,689.8 2626.5,678.5 2616.7,684.2 "/>
<polygon id="XMLID_59_" class="st2" points="2427.3,201.6 2429.7,212.8 2421.9,221 2433.2,222.1 2438.7,232.1 2443.2,221.7 
	2454.4,219.6 2445.9,212 2447.3,200.8 2437.6,206.5 "/>
<polygon id="XMLID_58_" class="st2" points="2724.5,150.6 2725.8,156.6 2721.6,161 2727.7,161.6 2730.7,167 2733.1,161.4 
	2739.1,160.3 2734.6,156.1 2735.3,150.1 2730.1,153.2 "/>
<polygon id="XMLID_57_" class="st2" points="2243.4,488.2 2245.9,500 2237.7,508.7 2249.6,509.8 2255.4,520.4 2260.2,509.4 
	2272,507.2 2263,499.2 2264.5,487.3 2254.2,493.4 "/>
<polygon id="XMLID_56_" class="st2" points="2390.7,628 2393.2,640 2384.8,648.9 2397,650.1 2402.9,661 2407.9,649.7 2419.9,647.4 
	2410.8,639.2 2412.3,627.1 2401.7,633.3 "/>
<polygon id="XMLID_55_" class="st2" points="2773.1,373.7 2774.9,382 2769.1,388.1 2777.5,388.9 2781.6,396.4 2785,388.6 
	2793.2,387.1 2787,381.4 2788,373.1 2780.7,377.3 "/>
<polygon id="XMLID_54_" class="st3" points="679.7,86.1 683.6,104.4 670.8,117.9 689.4,119.8 698.3,136.2 705.9,119.1 724.2,115.7 
	710.3,103.1 712.6,84.7 696.5,94.1 "/>
<polygon id="XMLID_53_" class="st2" points="2579.2,241.7 2581.6,252.6 2573.9,260.7 2585,261.8 2590.4,271.7 2594.9,261.4 
	2605.9,259.4 2597.6,251.9 2599,240.8 2589.3,246.5 "/>
<polygon id="XMLID_52_" class="st2" points="2355.8,541.9 2357.1,547.9 2352.9,552.3 2359,553 2361.9,558.3 2364.4,552.7 
	2370.4,551.6 2365.9,547.5 2366.6,541.5 2361.3,544.5 "/>
<polygon id="XMLID_51_" class="st2" points="2760.4,526.1 2761.7,532.1 2757.5,536.5 2763.6,537.1 2766.5,542.5 2769,536.9 
	2775,535.8 2770.5,531.7 2771.2,525.6 2765.9,528.7 "/>
<polygon id="XMLID_50_" class="st2" points="2484.7,314.9 2486,320.9 2481.8,325.4 2487.9,326 2490.8,331.4 2493.3,325.7 
	2499.3,324.6 2494.7,320.5 2495.5,314.5 2490.2,317.6 "/>
<polygon id="XMLID_79_" class="st2" points="1912.3,372.3 1914.6,383.2 1907,391.3 1918.1,392.5 1923.4,402.3 1927.9,392 
	1938.9,390 1930.6,382.5 1932,371.5 1922.4,377.1 "/>
<polygon id="XMLID_78_" class="st2" points="1897.6,247.8 1899.4,256 1893.6,262.2 1902,263 1906,270.4 1909.4,262.7 1917.7,261.1 
	1911.4,255.5 1912.5,247.1 1905.2,251.4 "/>
<polygon id="XMLID_77_" class="st2" points="1977.9,170.7 1980.5,182.7 1972,191.6 1984.2,192.8 1990.1,203.6 1995.1,192.3 
	2007.1,190.1 1998,181.9 1999.5,169.7 1988.9,175.9 "/>
<polygon id="XMLID_75_" class="st2" points="1947.4,507.6 1949.8,518.8 1941.9,527.1 1953.3,528.2 1958.8,538.3 1963.4,527.8 
	1974.7,525.7 1966.1,518 1967.5,506.7 1957.7,512.5 "/>
<polygon id="XMLID_74_" class="st2" points="1768.3,29.9 1770.7,41 1762.9,49.3 1774.2,50.4 1779.7,60.4 1784.2,50 1795.4,47.9 
	1786.9,40.3 1788.3,29.1 1778.6,34.8 "/>
<polygon id="XMLID_73_" class="st3" points="551.9,762.3 554.7,775.3 545.6,784.9 558.8,786.2 565.2,797.9 570.5,785.7 583.6,783.3 
	573.7,774.4 575.3,761.3 563.9,768 "/>
<polygon id="XMLID_72_" class="st3" points="89.6,702.8 91.1,709.9 86.2,715.1 93.4,715.9 96.9,722.3 99.8,715.6 106.9,714.3 
	101.5,709.4 102.4,702.2 96.2,705.9 "/>
<polygon id="XMLID_71_" class="st2" points="1731.7,456.3 1734.3,468.3 1725.8,477.2 1738,478.4 1743.9,489.2 1748.9,477.9 
	1760.9,475.7 1751.8,467.5 1753.3,455.4 1742.7,461.6 "/>
<polygon id="XMLID_70_" class="st2" points="2114.1,202 2115.9,210.3 2110.1,216.4 2118.5,217.2 2122.6,224.6 2126,216.9 
	2134.3,215.3 2128,209.7 2129,201.4 2121.7,205.6 "/>
<polygon id="XMLID_68_" class="st2" points="1920.3,69.9 1922.6,80.9 1914.9,89 1926,90.1 1931.4,99.9 1935.9,89.7 1946.9,87.6 
	1938.6,80.1 1940,69.1 1930.3,74.7 "/>
<polygon id="XMLID_67_" class="st3" points="191.4,743 194.4,756.7 184.7,766.9 198.7,768.3 205.4,780.6 211,767.7 224.8,765.2 
	214.4,755.8 216.1,741.9 204,749 "/>
<polygon id="XMLID_66_" class="st2" points="2101.4,354.4 2102.7,360.4 2098.5,364.8 2104.6,365.4 2107.5,370.8 2110,365.2 
	2116,364.1 2111.5,360 2112.2,353.9 2106.9,357 "/>
<polygon id="XMLID_65_" class="st3" points="14.9,648.3 17.4,659.8 9.4,668.4 21.1,669.5 26.7,679.9 31.5,669.1 43,666.9 
	34.3,659.1 35.7,647.4 25.6,653.4 "/>
<polygon id="XMLID_47_" class="st3" points="119.6,29.9 122,40.8 114.3,48.9 125.4,50 130.8,59.9 135.3,49.6 146.3,47.6 138,40.1 
	139.4,29 129.7,34.7 "/>
<polygon id="XMLID_31_" class="st3" points="47.9,97.9 51.8,116.2 39,129.8 57.5,131.6 66.5,148 74,130.9 92.4,127.5 78.5,115 
	80.8,96.5 64.7,106 "/>
</svg>
