<?xml version="1.0" encoding="utf-8"?>
<!-- Generator: Adobe Illustrator 19.0.0, SVG Export Plug-In . SVG Version: 6.00 Build 0)  -->
<svg version="1.1" id="Capa_1" xmlns="http://www.w3.org/2000/svg" xmlns:xlink="http://www.w3.org/1999/xlink" x="0px" y="0px"
	 viewBox="-549 551 500 500" style="enable-background:new -549 551 500 500;" xml:space="preserve">
<style type="text/css">
	.st0{fill:none;stroke:#FFFFFF;stroke-width:10;stroke-miterlimit:10;}
</style>
<path class="st0" d="M-272.4,684.8c-4.2-66.9-58.5-121.1-125.4-125.4c-81.1-5.2-148,61.8-142.9,142.9
	c4.2,66.9,58.5,121.1,125.4,125.4C-334.1,832.8-267.2,765.9-272.4,684.8z M-345,732.8c3,2.9,4.9,6.9,4.9,11.4
	c0,8.8-7.1,15.7-15.7,15.7c-4.3,0-8.4-1.8-11.2-4.6l0,0l-39.5-39.5l-39.3,39.2c-2.9,3-7,5-11.5,5c-8.8,0-15.8-7.1-15.8-15.7
	c0-4.4,1.8-8.4,4.7-11.2l39.6-39.6l-39.4-39.5c-3-2.9-4.8-6.9-4.8-11.3c0-8.7,7.1-15.7,15.7-15.7c4.2,0,8,1.7,10.8,4.3l39.9,39.9
	l39.8-39.6l0,0c2.9-2.8,6.7-4.5,11-4.5c8.8,0,15.7,7.1,15.7,15.7c0,4.2-1.7,8.1-4.3,10.8l-39.8,39.9L-345,732.8z"/>
<path class="st0" d="M-194.1,767.3c-75.7,0-137.1,61.8-137.1,137.9s61.4,137.9,137.1,137.9S-57,981.2-57,905.1
	C-57.1,828.9-118.5,767.3-194.1,767.3z M-119,870.2l-90.9,91.5c-3,3.1-7,4.1-11.6,4.1c-4.3,0-8.4-1.7-11.2-5.6h-0.1l-36.5-35.7v0.5
	c-2.9-2.9-4.6-6.6-4.6-11c0-8.8,7.1-15.8,15.9-15.8c4.4,0,8.5,1.9,11.4,4.9l0,0l23.4,23.5c0.4,0.4,1,0.7,1.6,0.7
	c0.5,0,0.9-0.2,1.3-0.5l78.4-78.8c2.9-3,6.9-4.8,11.4-4.8c8.8,0,15.9,7.1,15.9,15.9C-114.5,863.5-116.2,867.4-119,870.2z"/>
</svg>
