<svg xmlns="http://www.w3.org/2000/svg" viewBox="0 0 70.15 66.41"><defs><style>.cls-1{fill:#f2c40f;}</style></defs><title>Recurso 7</title><g id="Capa_2" data-name="Capa 2"><g id="Grado"><path class="cls-1" d="M68.7,59,37.63,32a4.21,4.21,0,0,0-5.52,0L1.45,58.62A4.21,4.21,0,0,0,7,65l27.9-24.19L63.18,65.37A4.21,4.21,0,1,0,68.7,59Z"/><path class="cls-1" d="M68.7,43,37.63,16a4.21,4.21,0,0,0-5.52,0L1.45,42.62A4.21,4.21,0,0,0,7,49l27.9-24.19L63.18,49.37A4.21,4.21,0,1,0,68.7,43Z"/><path class="cls-1" d="M68.7,28,37.63,1a4.21,4.21,0,0,0-5.52,0L1.45,27.62A4.21,4.21,0,0,0,7,34L34.87,9.79,63.18,34.37A4.21,4.21,0,1,0,68.7,28Z"/></g></g></svg>