<svg xmlns="http://www.w3.org/2000/svg" viewBox="0 0 81.11 51.75"><defs><style>.cls-1{fill:#f2c40f;}.cls-2{fill:#e5d4ae;}</style></defs><title>Recurso 11</title><g id="Capa_2" data-name="Capa 2"><g id="Grado"><path class="cls-1" d="M0,44.38a4.57,4.57,0,0,0,4.87,4.5h25.9v-9H4.87A4.57,4.57,0,0,0,0,44.38Z"/><path class="cls-1" d="M76.24,39.88H50.77v9H76.24a4.51,4.51,0,1,0,0-9Z"/><circle class="cls-2" cx="40.55" cy="43.88" r="7.88"/><path class="cls-1" d="M0,26.38a4.57,4.57,0,0,0,4.87,4.5h25.9v-9H4.87A4.57,4.57,0,0,0,0,26.38Z"/><path class="cls-1" d="M76.24,21.88H50.77v9H76.24a4.51,4.51,0,1,0,0-9Z"/><circle class="cls-2" cx="40.55" cy="25.88" r="7.88"/><path class="cls-1" d="M0,8.38a4.57,4.57,0,0,0,4.87,4.5h25.9v-9H4.87A4.57,4.57,0,0,0,0,8.38Z"/><path class="cls-1" d="M76.24,3.88H50.77v9H76.24a4.57,4.57,0,0,0,4.87-4.5A4.57,4.57,0,0,0,76.24,3.88Z"/><circle class="cls-2" cx="40.55" cy="7.88" r="7.88"/></g></g></svg>