<?xml version="1.0" encoding="utf-8"?>
<!-- Generator: Adobe Illustrator 19.0.0, SVG Export Plug-In . SVG Version: 6.00 Build 0)  -->
<svg version="1.1" id="Capa_1" xmlns="http://www.w3.org/2000/svg" xmlns:xlink="http://www.w3.org/1999/xlink" x="0px" y="0px"
	 viewBox="-549 551 500 500" style="enable-background:new -549 551 500 500;" xml:space="preserve">
<style type="text/css">
	.st0{fill:#E7E7E9;stroke:#FFFFFF;stroke-width:2;stroke-miterlimit:10;}
</style>
<g id="XMLID_5_">
	<path id="XMLID_3_" class="st0" d="M-178.9,855.5c-4.7-2.7-9.7-5-14.8-7c-11.5-4.4-23.6-6.5-35.5-9.4c-8.8-2.1-17.6-4.3-25.2-9.5
		c-7.9-5.4-9.1-13.5-3.2-20.9c3.7-4.6,6.1-9.8,8.2-15.2c2.9-7.7,4.8-15.6,6.1-23.7c0.3-2,0.4-4.3,2.2-5.5
		c9.8-6.5,11.3-16.9,12.7-27.3c0.3-2.2,0.6-4.8-1.9-5.9c-2.7-1.1-2.1-2.9-2.1-5c0-12.1,1.6-24.2-1.8-36.1c-4.3-14.5-13-25-27.8-29.5
		c-3.8-1.1-7.4-2.5-10.8-4.3c-18.8-9.8-38.4-11.3-58.5-4.8c-19.6,6.3-31.4,19.7-35.1,40c-2,11.4-0.9,22.8,0.6,34.1
		c0.4,2.8,0.4,4.9-3,5.9c-2.6,0.8-2.6,3.3-2.5,5.6c0.3,10,4.1,18.7,11.3,25.5c2.9,2.8,4.5,5.7,5.4,9.4c3.5,13.8,8.7,26.9,17.1,38.6
		c1.8,2.4,2.1,4.9,1.8,7.7c-0.8,7.2-5,11.7-11.4,14.6c-11.6,5.2-24.1,7.2-36.3,10.4c-14.1,3.7-28,7.9-39.8,16.7
		c-9,6.7-16.9,14.6-19.2,26.2c-2.2,11.1-2.1,22.3-0.5,33.6c0.6,4.4,2.8,7.5,6.5,9.8c7,4.3,14.3,7.9,21.9,11
		c37.3,15.3,76.2,21.7,116.3,21.6c31.3-0.1,54.7-2.9,83.4-10.4c18-4.7,35.5-11,51.5-20.7c4.9-3,7.6-7.1,8.6-12.6
		c1.2-6.2,1.2-12.5,1.2-18.8C-153.1,879.7-161.9,865.2-178.9,855.5z"/>
	<path id="XMLID_2_" class="st0" d="M-52.1,875.6c-0.6-13.3-7.8-22.5-19.5-28.3c-6.8-3.3-14-5.3-21.2-7.2
		c-9.1-2.3-18.2-4.4-26.8-8.2c-4.2-1.9-8.3-4.1-11-8c-5.9-8.2-2.6-15.6,7.8-18.5c9.1-2.6,18.6-4,27.4-8c2.8-1.3,3.6-2.4,1.7-5.2
		c-6.1-9.3-8-19.6-7.1-30.7c1.1-13.7-0.6-27.2-4.1-40.5c-3.3-12.2-10.6-20.7-22.5-25.2c-16.1-6-31.7-5-46.8,3.3
		c-1.2,0.6-2.4,1.5-3.6,1.8c-13.5,2.7-20.6,11.7-23.9,24.4c-3.8,14.4-4.7,29.2-5,44.1c-0.1,7.2,0,14.6-4,20.8
		c-2.1,3.4-0.7,4.3,1.7,5.8c7,4.1,14.6,6.2,22.3,8.5c10.4,3,15.2,13,7.2,21.7c-2.8,3-6.5,4.8-10,7.5c9.4,3.8,18.2,7.8,26,13.7
		c12.9,9.7,21.7,21.9,24.4,38.2c1.5,9.1,1.7,18.3,1,27.5c-0.2,2.5,0.1,3.8,3.1,3.6c22.2-1.5,44.1-4.4,65-12.4
		C-49.5,896.1-51,898.2-52.1,875.6z"/>
	<path id="XMLID_1_" class="st0" d="M-446.7,861.1c9-10.7,19.9-18.6,32.6-23.9c6.6-2.7,13.3-5,20.9-7.8c-6.2-2.1-11.9-3.3-16.7-6.8
		c-4.7-3.4-6.6-9.6-3.5-13.3c7.1-8.5,9.7-18.6,11.6-29c0.3-1.8,0.1-4,1.9-5.1c6.8-4.4,7.9-11.6,9.1-18.7c0.2-1.5,0.5-4-0.2-4.4
		c-3.9-2.1-2.4-5.5-2.4-8.4c-0.1-5.3,0.2-10.6-0.3-15.8c-1.2-14.6-9.8-24.9-23.6-28.7c-1.5-0.4-2.9-1-4.2-1.7
		c-10.2-5.9-21.3-8.2-33-6.7c-16,2.1-29.1,8.6-34.8,25.1c-2.8,8-3,16.3-2.1,24.7c0.4,4,4,9.1-2.6,11.9c-1.1,0.5-0.8,2.5-0.6,3.9
		c0.8,7,3.4,13.2,8.7,18c1.7,1.6,2.8,3.2,3.3,5.5c2.5,10.5,6.3,20.5,12.8,29.2c1.2,1.7,1.4,3.4,1.2,5.3c-0.6,6-4.5,9.3-9.7,11.4
		c-7.2,2.8-14.7,4.3-22.1,6.2c-10.6,2.7-21.1,5.5-30.3,11.7c-10.5,7.1-17,16.5-16.5,29.8c0.1,3.4,0.2,6.8,0.1,10.2
		c-0.1,6.4,2.6,10.7,8.5,13.7c24,12.4,49.6,18.5,76.3,20.9c2.8,0.2,3.6-0.5,3.4-3.3c-0.3-6.3-0.4-12.6-0.2-18.9
		C-458.5,883.2-455.3,871.3-446.7,861.1z"/>
</g>
</svg>
