<?xml version="1.0" encoding="utf-8"?>
<!-- Generator: Adobe Illustrator 19.0.0, SVG Export Plug-In . SVG Version: 6.00 Build 0)  -->
<svg version="1.1" id="Capa_1" xmlns="http://www.w3.org/2000/svg" xmlns:xlink="http://www.w3.org/1999/xlink" x="0px" y="0px"
	 viewBox="-549 551 500 500" style="enable-background:new -549 551 500 500;" xml:space="preserve">
<style type="text/css">
	.st0{fill:#E7E7E9;stroke:#FFFFFF;stroke-width:2;stroke-miterlimit:10;}
</style>
<path class="st0" d="M-272,682.8c-4.3-68-59.5-123.2-127.5-127.5C-482,550-550,618.1-544.8,700.6c4.3,68,59.5,123.2,127.5,127.5
	C-334.7,833.3-266.7,765.3-272,682.8z M-345.8,731.6c3.1,2.9,5,7,5,11.6c0,8.9-7.2,16-16,16c-4.4,0-8.5-1.8-11.4-4.7l0,0l-40.2-40.2
	l-40,39.9c-2.9,3.1-7.1,5.1-11.7,5.1c-8.9,0-16.1-7.2-16.1-16c0-4.5,1.8-8.5,4.8-11.4l40.3-40.3l-40.1-40.2c-3-2.9-4.9-7-4.9-11.5
	c0-8.8,7.2-16,16-16c4.3,0,8.1,1.7,11,4.4l40.6,40.6l40.5-40.3l0,0c2.9-2.8,6.8-4.6,11.2-4.6c8.9,0,16,7.2,16,16
	c0,4.3-1.7,8.2-4.4,11l-40.5,40.6L-345.8,731.6z"/>
<path class="st0" d="M-192.3,766.7c-77,0-139.4,62.8-139.4,140.2s62.4,140.2,139.4,140.2s139.4-62.8,139.4-140.2
	C-53,829.4-115.4,766.7-192.3,766.7z M-115.9,871.4l-92.4,93c-3,3.2-7.1,4.2-11.8,4.2c-4.4,0-8.5-1.7-11.4-5.7h-0.1l-37.1-36.3v0.5
	c-2.9-2.9-4.7-6.7-4.7-11.2c0-8.9,7.2-16.1,16.2-16.1c4.5,0,8.6,1.9,11.6,5l0,0l23.8,23.9c0.4,0.4,1,0.7,1.6,0.7
	c0.5,0,0.9-0.2,1.3-0.5l79.7-80.1c2.9-3,7-4.9,11.6-4.9c8.9,0,16.2,7.2,16.2,16.2C-111.4,864.6-113.1,868.5-115.9,871.4z"/>
</svg>
